<?xml version="1.0" encoding="UTF-8"?>
<svg width="66.28mm" height="196.23mm" version="1.1" viewBox="0 0 66.28 196.23" xmlns="http://www.w3.org/2000/svg">
  <g transform="translate(-41.705 -45.79)">
    <path d="m107.75 143.86-4e-3 -6e-3c-0.41416-0.61948-0.8629-1.5064-1.2968-2.3643-0.45156-0.89323-0.87842-1.7371-1.2654-2.2913-1.1303-1.6192-2.2003-2.2779-3.1143-2.7682-0.70732-0.37924-1.2143-1.0513-1.3914-1.844-0.29104-1.3053-1.3144-9.5275-1.9636-12.234-0.46743-1.9498-0.56868-3.1447-0.96943-4.5099-0.80398-2.7404-1.439-4.9043-1.7932-8.7662-0.41474-4.5325-1.1288-11.719-1.4717-15.173l-0.1457-1.4672c-0.55033-5.2239-2.7301-8.4536-6.4788-9.5991-0.3048-0.093133-0.72637-0.21061-1.2199-0.34749-2.0712-0.57573-5.1587-1.5388-6.41-2.5277-0.45826-0.36195-0.73166-0.96696-0.73166-1.6207l-0.08784-5.2677h-9.1274l-0.08784 5.2701c0 0.65123-0.2734 1.2562-0.73166 1.6182-1.2513 0.98884-4.3392 1.9519-6.4103 2.5277-0.49354 0.13688-0.91475 0.25435-1.2196 0.34749-3.7486 1.1458-5.9284 4.3755-6.4791 9.6001-0.04763 0.48119-0.12312 1.2301-0.21731 2.1646-0.35525 3.519-1.016 10.069-1.4005 14.476-0.3362 3.8583-0.97543 6.0198-1.784 8.7563-0.40428 1.3674-0.50976 2.5647-0.97825 4.5191-0.64911 2.7072-1.6729 10.929-1.9639 12.234-0.17674 0.79269-0.68368 1.4647-1.391 1.844-0.9144 0.49036-1.984 1.149-3.1147 2.7682-0.387 0.55421-0.8135 1.3981-1.2654 2.2913-0.43392 0.85795-0.88265 1.7448-1.3 2.37-0.23354 0.37606-0.29069 0.66322-0.17498 0.87701 0.10125 0.18732 0.31926 0.28645 0.64735 0.29492 1.0813 0.0325 1.8606-1.2622 2.1188-1.6863l0.04551-0.0744c0.30021-0.48401 0.51823-0.8008 0.67416-1.0082-0.1203 0.42086-0.34255 1.1377-0.73836 2.3354l-0.08572 0.26141c-0.66287 2.062-1.0432 3.6819-1.197 5.099-0.10971 1.0107 0.13229 1.7427 0.68227 2.0722 0.19191 0.44626 0.47343 0.71967 0.83714 0.81351 0.52846 0.13581 1.0693-0.15946 1.3219-0.32809 0.22684 0.19756 0.53128 0.26635 0.87348 0.19474 0.53375-0.11148 1.1303-0.56445 1.3751-1.0086 0.07232 0.0208 0.15522 0.0289 0.24589 0.0289 0.4893-9e-3 1.2044-0.35525 1.6997-1.106 0.63959-0.96978 1.0164-2.0447 1.3811-3.0843 0.10407-0.29739 0.20638-0.58985 0.31291-0.87278 0.5013-1.331 1.676-4.7149 1.7593-7.3875 0.02928-0.94967 0.17321-1.8436 0.42721-2.6571 1.1511-3.6865 1.7138-5.5496 2.4493-7.6136 1.0283-2.8854 1.4185-4.6175 2.1103-7.7512 0.56303-2.5502 1.0664-5.8879 1.6492-9.7529l0.25576-1.6919c0.42333-3.4833 1.0597-7.9079 1.4305-9.9871 1.6559 4.2541 2.2804 13.857 2.4765 17.933 0.08925 1.8574-0.92922 4.0873-2.2186 6.9102-1.4393 3.1521-3.2304 7.0743-4.1007 11.963-1.6111 9.0502-0.60642 15.323 0.87383 22.583 1.0506 5.1516 4.3935 23.589 4.1328 26.852 0.02611 2.1294-0.13723 4.9156-0.26882 7.1547-0.08714 1.4873-0.16263 2.7721-0.16298 3.5204-0.0056 7.9146 1.7653 14.771 3.1884 20.282 0.1838 0.71149 0.36124 1.3987 0.52776 2.0613 1.1924 4.7417 1.6302 8.2017 1.5113 11.942-0.02223 0.69786-2.9633 5.393-3.9384 6.8006-0.40711 0.62784-0.52917 1.2072-0.36301 1.7212 0.22507 0.69632 0.90311 1.0202 1.0485 1.0827 0.4452 0.33018 0.94897 0.4458 1.9375 0.67235 0.12665 0.0292 0.25329 0.0667 0.38418 0.10445 0.43286 0.12664 0.92322 0.26982 1.6372 0.21759 0.75283 0.33872 1.5423 0.42471 2.3481 0.25646 0.17568 7e-3 0.35772 0.0343 0.54963 0.0633 0.37218 0.0557 0.75671 0.11313 1.1716 0.0398 0.93133-0.1655 1.3663-0.60399 1.4542-1.4665 0.22331-2.1879 0.04127-7.1046-0.18732-8.6089-0.40005-2.6307-0.24941-6.2452-0.07585-10.431 0.21378-5.141 0.47942-11.539-0.16439-18.623-0.79446-8.744-0.71155-9.5462-0.51047-11.485 0.03528-0.34255 0.07444-0.72143 0.11324-1.1836 0.2293-2.7238 0.48542-7.965 0.66851-13.679 0.39052-12.194 0.58738-18.346-0.33549-33.741 0.36654 0.0328 0.74189 0.0667 1.1091 0.0487 0.3683 6e-3 0.7426-0.0159 1.1095-0.0487-0.92322 15.393-0.72602 21.546-0.33549 33.741 0.18309 5.7139 0.43886 10.955 0.66851 13.679 0.03845 0.46214 0.07796 0.84102 0.11324 1.1836 0.20073 1.9389 0.28399 2.7411-0.51047 11.485-0.64417 7.0844-0.37818 13.483-0.16475 18.625 0.17427 4.1847 0.3242 7.7991-0.0755 10.43-0.2286 1.504-0.41099 6.4203-0.18768 8.6089 0.08502 0.83013 0.54222 1.3096 1.3984 1.4665 0.16439 0.0299 0.32209 0.0416 0.47343 0.0416 0.2854 0 0.54822-0.0416 0.78952-0.0801 0.18697-0.03 0.36407-0.0583 0.53587-0.0653 0.79128 0.15599 1.7177-0.0113 2.225-0.25646 0.77788 0.0434 1.4905-0.0685 2.0934-0.32135 1.0336-0.23565 1.6669-0.41879 2.0189-0.69991 0.15028-0.0649 0.78705-0.37469 1.004-1.0414 0.16722-0.51443 0.04269-1.0979-0.37359-1.7403-0.9719-1.4023-3.913-6.0974-3.9352-6.7953-0.11924-3.7401 0.31891-7.2001 1.5109-11.942 0.16651-0.66258 0.34431-1.3498 0.52776-2.0613 1.4231-5.5101 3.194-12.367 3.1888-20.282-7.05e-4 -0.74824-0.07585-2.033-0.16334-3.5204-0.13123-2.2391-0.29492-5.0253-0.26882-7.1723-0.26035-3.2456 3.0826-21.683 4.1331-26.834 1.4803-7.2598 2.4846-13.533 0.87348-22.583-0.86995-4.8891-2.6614-8.8113-4.1007-11.963-1.2894-2.8229-2.3075-5.0528-2.2183-6.9102 0.10019-2.0835 0.96344-13.683 2.4804-17.911 0.37112 2.0884 1.0051 6.4946 1.4273 9.9706l0.2547 1.6863c0.58279 3.865 1.0862 7.2027 1.6492 9.7529 0.69215 3.1337 1.082 4.8652 2.1103 7.7505 0.73554 2.0641 1.2979 3.9275 2.4493 7.6144 0.25435 0.81316 0.39829 1.7074 0.42792 2.6571 0.0829 2.6726 1.2573 6.0565 1.7586 7.3875 0.10654 0.28293 0.2092 0.57539 0.31327 0.87278 0.36442 1.0396 0.74154 2.1146 1.3811 3.0843 0.4953 0.75071 1.2104 1.0968 1.6993 1.106 0.09 2e-3 0.17357-8e-3 0.24624-0.0289 0.24483 0.44415 0.84102 0.89712 1.3748 1.0086 0.3436 0.0716 0.64664 3e-3 0.87347-0.19474 0.25295 0.16863 0.79375 0.46249 1.3219 0.32809 0.36407-0.0938 0.64559-0.36725 0.8375-0.81351 0.54998-0.32949 0.79163-1.0615 0.68227-2.0722-0.15417-1.4171-0.53446-3.0371-1.197-5.099-0.26176-0.81386-0.59231-1.9057-0.76376-2.5583 0.13229 0.18873 0.30868 0.46214 0.54292 0.85301l0.11572 0.1905c0.25823 0.42369 1.0365 1.712 2.1191 1.687 0.32844-8e-3 0.54646-0.1076 0.6477-0.29492 0.11536-0.21379 0.0582-0.50095-0.17498-0.87701" fill="#ffc697"/>
    <path d="m80.575 189.26c-0.70203-0.0589-1.3593-0.93804-1.7156-1.511-0.08961-0.14499-0.10513-0.21837-0.05715-0.21837 0.03986 0 0.12418 0.0512 0.24694 0.15452 0.30762 0.2614 0.93486 0.43709 1.6602 0.43674 0.75953 0 1.6263-0.19227 2.3446-0.68051 0.25647-0.17463 0.49636-0.26071 0.635-0.26071 0.16228 0 0.18662 0.11783-0.06174 0.35067-1.106 1.0343-1.6672 1.7286-3.0522 1.7286" fill="#f2ac7e"/>
    <path d="m88.456 98.896c0 2.3393-1.7378 5.3968-3.8813 5.3968s-4.1444-2.716-4.1444-5.055c0-2.3393 1.7378-4.2355 3.8813-4.2355s4.1444 1.5547 4.1444 3.8936" fill="#fff"/>
    <path d="m69.115 189.26c-1.385 0-1.9466-0.69427-3.0522-1.7286-0.24836-0.23284-0.22437-0.35067-0.06209-0.35067 0.139 0 0.37853 0.0861 0.63535 0.26071 0.71826 0.48824 1.585 0.68051 2.3446 0.68051 0.72531 0 1.3526-0.17534 1.6602-0.43674 0.12241-0.10337 0.20673-0.15452 0.24694-0.15452 0.04798 0 0.03245 0.0734-0.0575 0.21837-0.35595 0.57291-1.0132 1.452-1.7152 1.511" fill="#f2ac7e"/>
    <path d="m74.575 124.87c-0.39194 0-0.70979-0.41628-0.70979-0.92957 0-0.51294 0.31785-0.92887 0.70979-0.92887 0.39158 0 0.70979 0.41593 0.70979 0.92887 0 0.51329-0.3182 0.92957-0.70979 0.92957" fill="#ec9e72"/>
    <path d="m61.235 98.896c0 2.3393 1.7378 5.3968 3.8813 5.3968 2.1435 0 4.1441-2.716 4.1441-5.055 0-2.3393-1.7374-4.2355-3.8809-4.2355s-4.1444 1.5547-4.1444 3.8936" fill="#fff"/>
    <path d="m81.802 52.523c-0.60431 3.368-3.1115 4.6782-6.9497 4.6782-3.8382 0-6.0734-1.373-6.9497-4.6782-0.87736-3.3098 2.2338-6.7331 6.9497-6.7331 4.7156 0 7.6341 2.9164 6.9497 6.7331" fill="#49250d"/>
    <path d="m67.942 65.103c0.30833 1.8419-0.29774 3.5013-1.543 3.6992-0.70838 0.11289-2.0306-1.1518-2.5721-2.9789-0.5267-1.7766-0.375-3.8181 1.4831-3.6904 1.0851 0.07444 2.3241 1.1285 2.6321 2.97" fill="#ffc697"/>
    <path d="m81.752 65.103c-0.30798 1.8419 0.2981 3.5013 1.543 3.6992 0.70873 0.11289 2.0309-1.1518 2.5725-2.9789 0.52634-1.7766 0.375-3.8181-1.4831-3.6904-1.0851 0.07444-2.3241 1.1285-2.6324 2.97" fill="#ffc697"/>
    <path d="m81.774 64.969c-0.21908 1.3049 0.28046 2.4927 1.2651 2.6494 0.56021 0.08925 1.5868-0.79234 1.99-2.0842 0.39194-1.2559 0.24589-2.709-1.2178-2.6423-0.85478 0.03881-1.8182 0.77188-2.0373 2.0772" fill="#f2ac7f"/>
    <path d="m67.921 64.969c0.21908 1.3049-0.28081 2.4927-1.2651 2.6494-0.56056 0.08925-1.5868-0.79234-1.99-2.0842-0.39229-1.2559-0.24624-2.709 1.2174-2.6423 0.85478 0.03881 1.8182 0.77188 2.0376 2.0772" fill="#f2ac7f"/>
    <path d="m79.44 74.925-0.01341-0.80504c0.0014-7.05e-4 0.0028-0.0018 0.0042-0.0028l0.01129 0.80645c-7.05e-4 3.53e-4 -0.0014 7.05e-4 -0.0021 0.0014m-9.1885-0.03316c-7.06e-4 -3.53e-4 -0.0014-7.06e-4 -0.0021-0.0014l0.0099-0.71614c0.0014 0.0011 0.0028 0.0021 0.0039 0.0028l-0.01164 0.71473" fill="#f1b89a"/>
    <path d="m74.848 77.015c-0.84279 0-1.6884-0.23001-2.4455-0.66569-0.38488-0.22119-1.2181-0.76518-2.1512-1.4577l0.01164-0.71473c1.0901 0.78528 2.1467 1.3395 2.5601 1.5469 0.63888 0.32068 1.3317 0.48119 2.0246 0.48119s1.3861-0.16051 2.0246-0.48119c0.4124-0.20708 1.4728-0.80328 2.5541-1.6041l0.01341 0.80504c-0.96167 0.68262-1.8143 1.2333-2.1467 1.4245-0.75671 0.43568-1.6023 0.66569-2.4451 0.66569" fill="#f0a77a"/>
    <path d="m84.653 59.448c0.12876-9.3292-4.8087-10.771-9.5416-10.907h-0.12347-0.1143-0.05151-0.11395-0.11712c-4.7396 0.13617-9.5589 1.8133-9.6555 10.907 0.03351 1.6069 0.29245 2.7936 0.29245 2.7936 0.50694 5.3742 1.391 7.7498 2.5989 9.5666 1.3257 1.9939 4.2397 3.5362 4.9964 3.9162 1.2774 0.64135 2.7718 0.64135 4.0492 0 0.75671-0.37994 3.6946-2.069 4.9417-3.9299 1.2545-1.8722 2.1385-4.9519 2.6208-9.6785 0.05539-0.54363 0.14781-1.1557 0.21802-2.6681" fill="#ffc697"/>
    <path d="m75.111 48.345h-0.52529c-4.1762 0.11994-9.7395 1.4009-9.8425 11.107 0.02752 1.319 0.25612 2.86 0.36618 3.6001 0.02434 0.16545 0.0381 0.31997 0.08608 0.46708 0.02646 0.08149 0.43145 0.88124 0.42369-0.13264l-0.0039-0.26776c-0.03246-2.2733-0.10936-7.5967 4.1356-8.8798 1.2834-0.38841 1.9593-0.2533 2.8187-0.08149 0.57362 0.11465 1.2845 0.25576 2.2687 0.24201 0.99907 0.01729 1.6937-0.10442 2.3118-0.21202 0.86854-0.15134 1.5554-0.27093 2.8071 0.05609 2.7986 0.73166 4.1652 3.6068 4.0788 9.0463-0.01588 1.0128 0.32985 0.42263 0.39158 0.10689 0.16792-0.8569 0.33972-2.2793 0.41628-3.9398l3.52e-4 -0.0063c0.13266-9.5914-5.129-10.973-9.7331-11.105" fill="#593014"/>
    <path d="m67.419 61.388c0.66781-0.5708 1.6122-0.85125 2.462-0.87771 0.93733-0.02963 1.9473 0.13088 2.7682 0.56938 0.21802 0.11642 0.7045 0.60572 0.26741 0.81986-0.24271 0.11889-0.60325-0.13899-0.82479-0.21519-0.88653-0.30551-1.9163-0.52881-2.8547-0.42298-0.48331 0.05433-0.96167 0.15593-1.4093 0.33761-0.13723 0.05539-0.4191 0.32844-0.56797 0.23671-0.15522-0.09631 0.0085-0.36019 0.1591-0.44768" fill="#593014"/>
    <path d="m82.145 61.388c-0.66781-0.5708-1.6122-0.85125-2.462-0.87771-0.93733-0.02963-1.9473 0.13088-2.7682 0.56938-0.21802 0.11642-0.7045 0.60572-0.26741 0.81986 0.24271 0.11889 0.60325-0.13899 0.8248-0.21519 0.88653-0.30551 1.9163-0.52881 2.8547-0.42298 0.4833 0.05433 0.96167 0.15593 1.4093 0.33761 0.13723 0.05539 0.4191 0.32844 0.56762 0.23671 0.15558-0.09631-0.0081-0.36019-0.15875-0.44768" fill="#593014"/>
    <path d="m91.618 136.25-0.0032-0.0261c-0.37536-1.9798-0.92181-3.9437-1.6708-6.0039-0.03175-0.0878-0.12065-0.14217-0.21449-0.1263-0.29633 0.0469-0.62971 0.1016-1.0093 0.16404l-0.34537 0.0575c-2.9806 0.49636-7.9696 1.3275-13.581 1.3275-5.612 0-10.601-0.83114-13.583-1.3279l-0.26141-0.0434c-0.36865-0.0614-0.69991-0.11606-0.99378-0.16263-0.09243-0.0155-0.18344 0.0381-0.2152 0.1263-0.79798 2.1974-1.3656 4.2795-1.7367 6.3648-0.01446 0.0822-0.02716 0.16228-0.04022 0.24236l-0.03175 0.19579c-0.0099 0.0593 0.0078 0.11995 0.04833 0.1644 0.04022 0.0448 0.09984 0.0677 0.15946 0.0639 4.5223-0.33337 9.5867 1.706 15.502 6.2498 0.03669 0.0325 0.0829 0.0494 0.12982 0.0494l0.08537-0.0194 0.07303-0.0614c0.2734-0.0963 1.5575-0.11147 1.8387-0.0229l0.06103 0.0508c0.06703 0.0356 0.14958 0.0289 0.21131-0.0176 5.8946-4.5219 10.936-6.5585 15.411-6.2286 0.05715 5e-3 0.11112-0.0155 0.15134-0.0554 0.04022-0.0392 0.06174-0.0942 0.05856-0.15028l-0.04304-0.81068" fill="#b2a39d"/>
    <path d="m88.8 97.926c-0.0568-0.83467-0.12841-1.5508-0.29422-2.334l-0.02328-0.10513c-0.42086-2.3368-0.64805-8.2913-0.64805-12.708 0-0.06209-0.05609-0.14005-0.10619-0.17709l-0.06138-0.03034c-0.27129-0.07937-0.6029-0.17145-0.97578-0.27481-0.63712-0.17709-1.5099-0.41945-2.3982-0.6918-0.05997-0.01799-0.12559-0.0071-0.17462 0.03069-0.05045 0.03775-0.07937 0.09701-0.07867 0.15946 0.01764 1.2023-0.06491 7.3727-3.4276 10.81-1.4725 1.5046-3.3976 2.2677-5.7214 2.2677h-0.09137c-2.3241 0-4.2489-0.76306-5.7214-2.2684-3.4357-3.5119-3.4382-10.073-3.4272-10.809 0.0011-0.06244-0.02822-0.12171-0.07796-0.15946-0.05009-0.03775-0.11536-0.04868-0.17498-0.03069-0.88829 0.27234-1.7611 0.5147-2.3985 0.6918-0.36971 0.10266-0.69956 0.19438-0.96979 0.27305l-0.08396 0.0448c-0.05609 0.03598-0.0896 0.09807-0.0896 0.16439 0 4.6754-0.23777 10.801-0.6791 12.944-0.15205 0.7232-0.26882 1.5737-0.32032 2.3333-0.10195 1.5131 0.21661 3.1433 0.79657 3.9913 0.25294 0.60043 0.67592 0.66993 0.87983 0.74295 0.50165 1.2933 0.52282 1.464 0.69462 2.86 0.04445 0.36442 0.09948 0.81104 0.17568 1.3808 0.01411 0.10372 0.10866 0.17851 0.21096 0.16934 6.6918-0.57609 17.4-0.29951 22.578 0.01l0.01199 3.5e-4c0.09737 0 0.18098-0.072 0.19403-0.16968 0.11465-0.84773 0.2353-1.6588 0.35878-2.4098l3.53e-4 -1e-3 0.21096-1.3303c0.08855-0.10301 0.2473-0.31538 0.40076-0.57856 0.17357-0.0183 0.59408-0.60184 0.63112-0.66886 0.68051-1.239 0.89147-2.7647 0.7994-4.1264" fill="#b2a39d"/>
    <path d="m103.25 141.81-0.0243-2e-3c-0.0526-0.0102-1.2898-0.25929-2.2581-0.91616-1.0887-0.73907-1.2428-1.7738-1.2492-1.8175-0.0078-0.0589 0.02646-0.11536 0.08255-0.13512 0.01376-5e-3 0.02787-7e-3 0.04163-7e-3 0.04304 0 0.08431 0.0222 0.1076 0.0607 0.9144 1.5155 2.3467 2.1957 3.3443 2.5756 0.061 0.0229 0.0938 0.0889 0.0758 0.1517-0.0155 0.0543-0.0656 0.0907-0.12029 0.0907" fill="#f0a77a"/>
    <path d="m46.439 141.81c-0.05503 0-0.10478-0.0363-0.1203-0.0907-0.01799-0.0628 0.01482-0.12877 0.07585-0.1517 0.99801-0.37994 2.4299-1.0604 3.3443-2.5756 0.02328-0.0385 0.06456-0.0607 0.1076-0.0607 0.01376 0 0.02787 2e-3 0.04163 7e-3 0.05609 0.0198 0.09031 0.0762 0.08255 0.13512-0.0063 0.0437-0.16016 1.0784-1.2492 1.8175-0.96873 0.65687-2.2059 0.90593-2.2581 0.91616l-0.02434 2e-3" fill="#f0a77a"/>
    <path d="m72.219 84.063c-1.2277 0-3.8767-0.33796-5.5972-0.82374-0.31221-0.08855-0.30833-0.17568-0.0042-0.17568 0.01058 0 0.02152 0 0.03281 3.53e-4 1.3825 0.02716 4.7357 0.14711 5.9679 0.68368 0.50482 0.21978 0.25365 0.31538-0.39934 0.31538" fill="#f2ac7e"/>
    <path d="m77.172 84.063c-0.65334 0-0.90452-0.0956-0.3997-0.31538 1.2319-0.53622 4.5854-0.65617 5.9676-0.68333 0.01129-3.53e-4 0.02223-3.53e-4 0.03281-3.53e-4 0.3041 0 0.30798 0.08678-0.0042 0.17533-1.7198 0.48613-4.3684 0.82374-5.5965 0.82374" fill="#f2ac7e"/>
    <path d="m44.103 152.38c-0.127-0.16122-0.2353-0.33726-0.3108-0.42933 0.03775 0.0289 0.0769 0.0561 0.11818 0.0804 0.05645 0.13159 0.12065 0.24765 0.19262 0.3489" fill="#f1b89a"/>
    <path d="m44.422 152.69c-0.0025 0-0.02505-0.0349-0.05539-0.0483-0.09313-0.066-0.18239-0.16369-0.26388-0.2674-0.07197-0.10125-0.13617-0.21731-0.19262-0.3489-0.04127-0.0243-0.08043-0.0515-0.11818-0.0804-0.0056-7e-3 -0.01094-0.0134-0.01623-0.019 0.32068-0.0406 0.7246-1.9251 1.3293-3.8305 0.375-1.1808 0.67451-2.4063 0.91581-3.1718 0.03104-0.0991 0.07161-0.14217 0.1404-0.14217 0.05327 0 0.12312 0.0257 0.21908 0.0713 0.16298 0.0776 0.32844 0.10725 0.25823 0.27764-0.25823 0.6283-0.69744 1.9826-1.0732 3.1658-0.5454 1.718-1.3406 3.9299-1.1543 4.3653 0.0088 0.0208 0.01199 0.0286 0.01094 0.0286" fill="#f0a77a"/>
    <path d="m43.757 151.93c-0.0088 0-0.01305-1e-3 -0.01376-2e-3 -3.52e-4 -1e-3 0.0028-2e-3 0.0092-2e-3 0.0032 0 0.0074 3.5e-4 0.01199 1e-3 0.0014 1e-3 0.0028 2e-3 0.0042 4e-3 -0.0042 3.5e-4 -0.0081 3.5e-4 -0.01164 3.5e-4" fill="#f1b89a"/>
    <path d="m43.769 151.93c-0.0014-1e-3 -0.0028-2e-3 -0.0042-4e-3 0.0035 7.1e-4 0.0074 1e-3 0.01129 3e-3 -0.0025 3.5e-4 -0.0049 3.5e-4 -0.0071 7e-4" fill="#f0a77a"/>
    <path d="m45.697 152.72c0.15205-0.0674 0.28046-0.14499 0.37183-0.20567 0.09419 0.0822 0.20214 0.14182 0.32068 0.17886-0.07161-0.0116-0.18203-0.0191-0.29669-0.0191-0.15169 0-0.31044 0.0127-0.39582 0.0459" fill="#f1b89a"/>
    <path d="m45.678 152.72c-0.01129 0-0.02611-4e-3 6e-3 -0.0356 0.30445-0.29598 0.82232-2.4144 1.2883-3.8266 0.49036-1.487 0.87948-2.6998 0.895-2.9513 0.0067-0.11324 0.0829-0.15381 0.17956-0.15381 0.06033 0 0.12912 0.0159 0.19403 0.0395 0.16933 0.0614 0.35278 0.19579 0.23848 0.33796-0.11994 0.14958-0.48154 1.2284-0.96591 2.6928-0.47625 1.4404-1.4026 3.665-1.0813 3.8739-0.01199-3e-3 -0.02646-6e-3 -0.04269-8e-3 -0.11853-0.037-0.22648-0.0967-0.32068-0.17886-0.09137 0.0607-0.21978 0.13829-0.37183 0.20567-0.0035 1e-3 -0.0071 3e-3 -0.01023 4e-3 0 0-0.0039 7.1e-4 -0.0088 7.1e-4" fill="#f0a77a"/>
    <path d="m46.449 152.71s-0.0039-2e-3 -0.0078-5e-3c0.0056 4e-3 0.0078 5e-3 0.0078 5e-3" fill="#f1b89a"/>
    <path d="m46.441 152.71c-0.0021-1e-3 -0.0042-3e-3 -6e-3 -4e-3 0.0025 1e-3 0.0042 2e-3 6e-3 4e-3m-6e-3 -4e-3c-3.53e-4 -3.5e-4 -3.53e-4 -3.5e-4 -7.06e-4 -3.5e-4 3.53e-4 0 3.53e-4 0 7.06e-4 3.5e-4m-7.06e-4 -3.5e-4v-3.5e-4 3.5e-4m0-3.5e-4c-7.05e-4 -3.5e-4 -0.0014-7.1e-4 -0.0021-1e-3 0 0 7.05e-4 7e-4 0.0021 1e-3" fill="#f0a77a"/>
    <path d="m47.919 152.18c0.16757-0.14993 0.30762-0.31644 0.39899-0.48225 0.07232 0.0208 0.15522 0.0289 0.24589 0.0289 0.05609-1e-3 0.11501-6e-3 0.17639-0.0166-0.07832 0.0187-0.15981 0.0388-0.2159 0.0586-0.16122 0.0572-0.40887 0.25153-0.60537 0.41134" fill="#f1b89a"/>
    <path d="m47.776 152.28c-0.0071 0-0.0063-8e-3 0.01411-0.0317 0.62618-0.73166 1.9713-6.1856 1.983-6.2283 0.02787-0.10372 0.08749-0.13512 0.16651-0.13512 0.0568 0 0.12382 0.0162 0.19685 0.0335 0.26106 0.0617 0.34325 0.10795 0.26247 0.28152-0.06703 0.14322-1.9131 5.4109-1.5448 5.4857-0.03422 8e-3 -0.07373 0.0176-0.1136 0.0268-0.06138 0.0102-0.1203 0.0155-0.17639 0.0166-0.09066 0-0.17357-8e-3 -0.24589-0.0289-0.09137 0.16581-0.23142 0.33232-0.39899 0.48225-0.03034 0.0247-0.05927 0.0483-0.08643 0.0706 0 0-0.04304 0.0272-0.0568 0.0272" fill="#f0a77a"/>
    <path d="m48.897 151.69s-3.53e-4 0-3.53e-4 -3.5e-4c0 3.5e-4 3.53e-4 3.5e-4 3.53e-4 3.5e-4m-3.53e-4 -3.5e-4h-7.05e-4 7.05e-4m-7.05e-4 0c-0.0049-1e-3 -0.02222-5e-3 -0.03316-7e-3 0.02011 4e-3 0.02963 6e-3 0.03316 7e-3m-0.03316-7e-3h-3.53e-4 3.53e-4m-3.53e-4 0c-3.53e-4 -3.6e-4 -7.06e-4 -3.6e-4 -0.0011-3.6e-4 3.53e-4 0 7.06e-4 0 0.0011 3.6e-4" fill="#f1b89a"/>
    <path d="m48.862 151.69c-7.05e-4 0-0.0014-3.5e-4 -0.0018-3.5e-4 7.05e-4 0 0.0011 3.5e-4 0.0018 3.5e-4m-0.0018-3.5e-4h-7.06e-4 7.06e-4m-7.06e-4 0c-7.06e-4 -3.5e-4 -0.0014-3.5e-4 -0.0021-3.5e-4 7.06e-4 0 0.0014 0 0.0021 3.5e-4m-0.0021-3.5e-4c-3.52e-4 -3.5e-4 -7.05e-4 -3.5e-4 -0.0011-3.5e-4 3.53e-4 0 7.06e-4 0 0.0011 3.5e-4m-0.0011-3.5e-4c-7.06e-4 -3.6e-4 -0.0011-3.6e-4 -0.0014-3.6e-4 3.53e-4 0 7.05e-4 3.6e-4 0.0014 3.6e-4m-0.0014-3.6e-4h-3.53e-4 3.53e-4m-3.53e-4 0h-3.53e-4 3.53e-4m-3.53e-4 0-3.52e-4 -3.5e-4 3.52e-4 3.5e-4" fill="#f0a77a"/>
    <path d="m66.942 241.37c-0.08678-0.0247-0.17357-0.0508-0.25894-0.0705-0.03069-7e-3 -0.05962-0.0134-0.08784-0.0201 0.02893 7e-3 0.05821 0.0134 0.08784 0.0201 0.08819 0.0204 0.17639 0.0448 0.26599 0.0701-0.0025 4.1e-4 -0.0046 4.1e-4 -0.0071 4.1e-4" fill="#f1b89a"/>
    <path d="m67.133 241.39c-0.03422-0.011-0.07867-0.0145-0.12806-0.0145-0.01835 0-0.03704 2.8e-4 -0.05609 9.7e-4 -0.08961-0.0254-0.1778-0.0498-0.26599-0.0701-0.02963-7e-3 -0.05891-0.0134-0.08784-0.0201-0.03387-8e-3 -0.06703-0.0152-0.1009-0.0233-0.07232-0.31392 0.139-1.1963 0.4064-1.604 0.11994-0.18273 0.25823-0.28015 0.35066-0.28015 0.09384 0 0.13935 0.10087 0.06879 0.31502-0.21943 0.66076-0.15946 0.96338-0.18697 1.6962" fill="#f0a77a"/>
    <path d="m65.379 240.96c-0.2353-0.085-0.43251-0.18342-0.61666-0.31723 0.04516-0.52737 0.17357-1.0512 0.45614-1.483 0.11924-0.18135 0.22825-0.27685 0.29175-0.27685 0.06526 0 0.08149 0.10225 0.01023 0.31778-0.21908 0.66145-0.06033 1.021-0.08784 1.753l-0.05362 6e-3" fill="#f0a77a"/>
    <path d="m71.534 241.93c-0.15628-0.0232-0.30692-0.0444-0.45261-0.0521 0.14605 8e-3 0.29598 0.0281 0.45261 0.0514v6.9e-4m-0.45367-0.0521c-0.0018-4.1e-4 -0.0035-4.1e-4 -0.0053-4.1e-4 0.0018 0 0.0035 0 0.0053 4.1e-4m-0.0095-8.2e-4h-0.0028 0.0028m-0.0095-2.8e-4h-0.0011 0.0011" fill="#f1b89a"/>
    <path d="m70.656 241.94c-6e-3 -0.92287 0.30692-1.9153 0.4258-2.551 0.06068-0.32274 0.25188-0.4797 0.44027-0.4797 0.20249 0 0.40146 0.18204 0.43039 0.5344 0.0448 0.53937-0.38488 0.97331-0.41804 2.4892-0.15663-0.0233-0.30656-0.0437-0.45261-0.0514h-0.0011c-0.0018-4.1e-4 -0.0035-4.1e-4 -0.0053-4.1e-4 -0.0014 0-0.0028-4.1e-4 -0.0042-4.1e-4h-0.0028c-0.0025 0-0.0046-2.8e-4 -0.0067-2.8e-4h-0.0011c-0.0028 0-0.0056-4.1e-4 -0.0081-4.1e-4 -0.13264 0.0276-0.26494 0.0459-0.39652 0.0601" fill="#f0a77a"/>
    <path d="m68.714 241.63c-0.0032-1e-3 -6e-3 -2e-3 -0.0092-4e-3 0.0032 1e-3 6e-3 2e-3 0.0092 4e-3" fill="#f1b89a"/>
    <path d="m69.213 241.81c-0.16792-0.0495-0.33443-0.10914-0.49918-0.18287-0.0032-1e-3 -6e-3 -2e-3 -0.0092-4e-3 -0.05821 4e-3 -0.11289 5e-3 -0.16616 5e-3 -0.05256 0-0.10407-1e-3 -0.15628-2e-3 0.07832-0.62687 0.21696-1.2802 0.55598-1.7981 0.15275-0.23358 0.32138-0.36408 0.42545-0.36408 0.09666 0 0.13688 0.11396 0.05397 0.36408-0.24448 0.73559-0.20955 1.2333-0.20461 1.9809" fill="#f0a77a"/>
    <path d="m82.512 241.39c-0.02752-0.73284 0.03245-1.0355-0.18697-1.6962-0.07055-0.21415-0.02469-0.31502 0.06914-0.31502 0.09208 0 0.23072 0.0974 0.35066 0.28015 0.26705 0.40776 0.47872 1.2901 0.40605 1.604-0.06244 0.0145-0.12171 0.0282-0.18838 0.0434-0.08572 0.0197-0.17251 0.0459-0.25929 0.0705-0.02152-6.9e-4 -0.04269-1e-3 -0.06315-1e-3 -0.04904 0-0.09384 3e-3 -0.12806 0.0145" fill="#f0a77a"/>
    <path d="m84.266 240.96-0.05362-6e-3c-0.02752-0.73202 0.13123-1.0916-0.08749-1.753-0.07161-0.21553-0.05503-0.31778 0.01023-0.31778 0.06315 0 0.17216 0.0955 0.2914 0.27685 0.28258 0.43187 0.41099 0.95567 0.45649 1.483-0.18415 0.13381-0.38135 0.2322-0.61701 0.31723" fill="#f0a77a"/>
    <path d="m78.989 241.94c-0.12771-0.0138-0.25612-0.0314-0.38488-0.0579 0.01834-1e-3 0.03704-2e-3 0.05574-3e-3 0.1076 0.0212 0.21802 0.0364 0.32949 0.0463 0 5e-3 0 0.01-3.52e-4 0.0145" fill="#f1b89a"/>
    <path d="m78.111 241.93c-0.03316-1.5165-0.46284-1.9505-0.41769-2.4898 0.02858-0.35236 0.22754-0.5344 0.43004-0.5344 0.18838 0 0.37959 0.15696 0.44027 0.4797 0.11818 0.63224 0.42898 1.6178 0.42616 2.5366-0.11148-0.01-0.2219-0.0251-0.32949-0.0463-0.0187 6.9e-4 -0.0374 2e-3 -0.05574 3e-3 -0.0039-6.9e-4 -0.0078-2e-3 -0.01129-2e-3 -0.15487 6e-3 -0.31538 0.0287-0.48225 0.0536" fill="#f0a77a"/>
    <path d="m80.432 241.81v-0.0216c0.17145-0.0475 0.32526-0.10445 0.45261-0.16578 0.01729 6.9e-4 0.03422 2e-3 0.05151 2e-3 -0.16616 0.0748-0.33443 0.13478-0.50412 0.18494" fill="#f1b89a"/>
    <path d="m80.432 241.79c0.0056-0.73546 0.03775-1.2309-0.20461-1.9593-0.0829-0.25012-0.04269-0.36408 0.05433-0.36408 0.10372 0 0.2727 0.1305 0.4251 0.36408 0.33937 0.51786 0.47801 1.1712 0.55598 1.7981-0.05221 4.1e-4 -0.10372 2e-3 -0.15628 2e-3 -0.05327 0-0.10795-1e-3 -0.16616-5e-3 -0.0014 4.2e-4 -0.0028 1e-3 -0.0042 2e-3 -0.01729-6.8e-4 -0.03422-2e-3 -0.05151-2e-3 -0.12735 0.0613-0.28116 0.11824-0.45261 0.16578" fill="#f0a77a"/>
    <path d="m105.59 152.37c0.0716-0.1009 0.13581-0.21696 0.19191-0.34784 0.0409-0.0243 0.0801-0.0512 0.11782-0.0801-0.0755 0.0921-0.18309 0.26705-0.30973 0.42792" fill="#f1b89a"/>
    <path d="m105.27 152.69c-1e-3 0 2e-3 -8e-3 0.0113-0.0286 0.18592-0.43533-0.60889-2.6472-1.1543-4.3653-0.37571-1.1832-0.81527-2.5375-1.0732-3.1658-0.0702-0.17039 0.0952-0.20003 0.25788-0.27764 0.096-0.0455 0.16616-0.0713 0.21943-0.0713 0.0688 0 0.10936 0.043 0.14041 0.14217 0.2413 0.76553 0.54081 1.9911 0.91546 3.1718 0.60501 1.9054 1.0086 3.7899 1.3296 3.8305-5e-3 6e-3 -0.0109 0.0123-0.0166 0.0194-0.0377 0.0289-0.0769 0.0557-0.11782 0.0801-0.0561 0.13088-0.1203 0.24694-0.19191 0.34784-0.0815 0.10407-0.1711 0.20249-0.26494 0.26846-0.03 0.0134-0.0529 0.0483-0.0554 0.0483" fill="#f0a77a"/>
    <path d="m105.93 151.93c-3e-3 0-7e-3 0-0.0113-3.5e-4 1e-3 -1e-3 3e-3 -2e-3 4e-3 -4e-3 5e-3 -7e-4 8e-3 -1e-3 0.0117-1e-3 6e-3 0 0.01 1e-3 9e-3 2e-3 -3.6e-4 1e-3 -5e-3 2e-3 -0.0138 2e-3" fill="#f1b89a"/>
    <path d="m105.92 151.93c-2e-3 -3.5e-4 -5e-3 -3.5e-4 -7e-3 -7e-4 4e-3 -1e-3 8e-3 -2e-3 0.0113-3e-3 -1e-3 1e-3 -3e-3 2e-3 -4e-3 4e-3" fill="#f0a77a"/>
    <path d="m104 152.72h-3.5e-4c-0.0822-0.0363-0.248-0.0501-0.40569-0.0501-0.1143 0-0.22472 7e-3 -0.29634 0.0187 0.11818-0.0367 0.22578-0.0967 0.31997-0.17851 0.0935 0.0621 0.22578 0.14147 0.38241 0.2099" fill="#f1b89a"/>
    <path d="m104.01 152.72c-4e-3 0-8e-3 -3.5e-4 -8e-3 -7.1e-4 -0.15663-0.0684-0.28892-0.14781-0.38241-0.2099-0.0942 0.0819-0.20179 0.14182-0.31997 0.17851-0.0166 3e-3 -0.031 6e-3 -0.043 9e-3 0.32138-0.20885-0.60502-2.4335-1.0813-3.8739-0.48436-1.4644-0.84596-2.5432-0.9659-2.6928-0.1143-0.14217 0.0691-0.27658 0.23812-0.33796 0.0653-0.0236 0.1337-0.0395 0.19438-0.0395 0.0967 0 0.17251 0.0406 0.17957 0.15381 0.0152 0.25153 0.40428 1.4644 0.89499 2.9513 0.46602 1.4122 0.98355 3.5306 1.2884 3.8266 0.0318 0.0314 0.0169 0.0356 6e-3 0.0356" fill="#f0a77a"/>
    <path d="m103.24 152.71s2e-3 -1e-3 7e-3 -5e-3c-4e-3 2e-3 -7e-3 5e-3 -7e-3 5e-3" fill="#f1b89a"/>
    <path d="m103.25 152.71c1e-3 -1e-3 3e-3 -2e-3 5e-3 -3e-3 -1e-3 1e-3 -3e-3 2e-3 -5e-3 3e-3m5e-3 -3e-3h7e-4 -7e-4m7e-4 0v-3.5e-4 3.5e-4m0-3.5e-4c3.6e-4 0 3.6e-4 0 3.6e-4 -3.6e-4 0 3.6e-4 0 3.6e-4 -3.6e-4 3.6e-4m3.6e-4 -3.6e-4h3.5e-4 -3.5e-4m3.5e-4 0s3.5e-4 0 3.5e-4 -3.5e-4c0 3.5e-4 -3.5e-4 3.5e-4 -3.5e-4 3.5e-4m3.5e-4 -3.5e-4h3.6e-4 -3.6e-4m3.6e-4 0c3.5e-4 -3.5e-4 7e-4 -3.5e-4 7e-4 -7e-4 0 3.5e-4 -3.5e-4 3.5e-4 -7e-4 7e-4m7e-4 -7e-4c1e-3 -7.1e-4 2e-3 -1e-3 2e-3 -1e-3 -7.1e-4 3.5e-4 -1e-3 7e-4 -2e-3 1e-3" fill="#f0a77a"/>
    <path d="m101.77 152.18c-0.1965-0.15981-0.44379-0.35419-0.60537-0.41134-0.0557-0.0197-0.13723-0.0399-0.2159-0.0586 0.0614 0.0102 0.12065 0.0155 0.17639 0.0166 8e-3 3.5e-4 0.0162 3.5e-4 0.024 3.5e-4 0.0808 0 0.15628-0.0102 0.22225-0.0293 0.091 0.16546 0.23142 0.33232 0.39864 0.48225" fill="#f1b89a"/>
    <path d="m101.92 152.28c-0.0138 0-0.0568-0.0272-0.0568-0.0272-0.0272-0.0222-0.0561-0.0462-0.0864-0.0706-0.16722-0.14993-0.30762-0.31679-0.39864-0.48225-0.066 0.0191-0.14146 0.0293-0.22225 0.0293-8e-3 0-0.0159 0-0.024-3.5e-4 -0.0557-1e-3 -0.115-6e-3 -0.17639-0.0166-0.0399-9e-3 -0.079-0.0183-0.11359-0.0268 0.36865-0.0748-1.4774-5.3425-1.5445-5.4857-0.08079-0.17357 0.0014-0.21979 0.26211-0.28152 0.07302-0.0173 0.14005-0.0335 0.19685-0.0335 0.07937 0 0.13864 0.0314 0.16686 0.13512 0.01129 0.0427 1.3568 5.4966 1.9826 6.2283 0.0205 0.024 0.0215 0.0317 0.0141 0.0317" fill="#f0a77a"/>
    <path d="m100.79 151.69h3.6e-4 -3.6e-4m3.6e-4 0v-3.5e-4 3.5e-4m0-3.5e-4h1e-3 -1e-3m1e-3 0h3.5e-4 -3.5e-4m3.5e-4 0s3.5e-4 0 7e-4 -3.5e-4c-3.5e-4 3.5e-4 -7e-4 3.5e-4 -7e-4 3.5e-4m7e-4 -3.5e-4c1e-3 0 4e-3 -7.1e-4 7e-3 -1e-3 -3e-3 7e-4 -5e-3 1e-3 -7e-3 1e-3m7e-3 -1e-3h3.5e-4 -3.5e-4m3.5e-4 0c5e-3 -1e-3 0.0123-2e-3 0.0226-5e-3 -7e-3 1e-3 -0.0159 3e-3 -0.0226 5e-3m0.0226-5e-3h3.5e-4 -3.5e-4m3.5e-4 0c3.6e-4 0 1e-3 -3.5e-4 2e-3 -3.5e-4 -7.1e-4 0-1e-3 3.5e-4 -2e-3 3.5e-4m2e-3 -3.5e-4h3.5e-4 -3.5e-4m3.5e-4 0s7e-4 -3.6e-4 1e-3 -3.6e-4c-3.6e-4 0-7.1e-4 3.6e-4 -1e-3 3.6e-4" fill="#f1b89a"/>
    <path d="m100.83 151.69c3.5e-4 0 1e-3 -3.5e-4 2e-3 -3.5e-4 -7e-4 0-1e-3 3.5e-4 -2e-3 3.5e-4m2e-3 -3.5e-4h7.1e-4 -7.1e-4m7.1e-4 0c3.5e-4 -3.5e-4 1e-3 -3.5e-4 2e-3 -3.5e-4 -7e-4 0-1e-3 0-2e-3 3.5e-4m2e-3 -3.5e-4c7.1e-4 -3.5e-4 1e-3 -3.5e-4 1e-3 -3.5e-4 -3.5e-4 0-1e-3 0-1e-3 3.5e-4m1e-3 -3.5e-4c3.5e-4 0 7.1e-4 -3.6e-4 1e-3 -3.6e-4 -3.5e-4 0-7e-4 0-1e-3 3.6e-4m1e-3 -3.6e-4c3.6e-4 0 7.1e-4 -3.5e-4 7.1e-4 -3.5e-4 -3.5e-4 3.5e-4 -3.5e-4 3.5e-4 -7.1e-4 3.5e-4" fill="#f0a77a"/>
    <path d="m69.148 104.31c-1.3998 0.29174-3.5747 0.09-4.8641-0.53023-1.978-0.95144-2.631-1.735-2.631-1.735 0.67239 1.2778 1.5261 2.0927 2.8596 2.5838 1.6267 0.59866 3.6089 0.68086 5.2335 0.0356 1.0273-0.40817 0.38135-0.5581-0.59796-0.35419" fill="#9b8e87"/>
    <path d="m80.526 104.28c1.3995 0.2914 3.5743 0.0896 4.8641-0.53058 1.9777-0.95109 2.6307-1.735 2.6307-1.735-0.67204 1.2781-1.5261 2.0927-2.8593 2.5838-1.6267 0.59901-3.6093 0.68121-5.2338 0.036-1.0273-0.40816-0.38135-0.55845 0.59831-0.35419" fill="#9b8e87"/>
    <path d="m74.792 73.035h-0.03598c-0.75882 0-1.1973-0.23213-1.5498-0.41875l-0.05115-0.02716c-0.15452-0.08149-0.1277-0.1644-0.11606-0.18803 0.02611-0.05186 0.09384-0.07867 0.18838-0.07867 0.05115 0 0.11007 0.0078 0.17427 0.02364 0.47413 0.11748 0.94227 0.17639 1.4016 0.17639 0.45438 0 0.90029-0.0575 1.3339-0.17251 0.07056-0.01834 0.13018-0.02646 0.17921-0.02646 0.10336 0 0.16157 0.03457 0.18274 0.07691 0.0127 0.02328 0.04022 0.10654-0.11536 0.18874l-0.06315 0.03316c-0.34643 0.1838-0.77823 0.41275-1.5286 0.41275" fill="#f0a77a"/>
    <path d="m72.369 63.809c-0.91722 1.2273-2.606 1.2615-3.8756 0.38735-0.36301-0.24977-0.45896-0.64664-0.39829-0.90029 0.14076-0.58843 4.0368-0.51541 4.1381-0.04621 0.05327 0.24553 0.26564 0.32844 0.13582 0.55915" fill="#fff"/>
    <path d="m67.913 63.364c0.83502-1.2912 2.9739-1.4496 4.1406-0.44203 0.18274 0.15804 0.67945 0.75459 0.54857 0.98213-0.10795 0.18768-0.20849 0.08572-0.3048-0.0568-0.10936-0.16192-0.2667-0.33267-0.4198-0.46531-0.49883-0.43356-1.3162-0.52846-1.9696-0.44909-0.53552 0.06526-0.96449 0.23213-1.4238 0.70732-0.14817 0.15311-0.30621 0.32068-0.47378 0.31009-0.25224-0.01588-0.22719-0.3556-0.09737-0.58632" fill="#3a1e0a"/>
    <path d="m70.146 62.709c-0.21908 0.06668-0.50518 0.20038-0.74119 0.1718-0.08573 0.16686-0.13758 0.36089-0.15416 0.57009-0.05327 0.65899 0.37359 1.216 1.0813 1.2552 0.76165 0.04127 1.1049-0.47449 1.1585-1.1335 0.02046-0.25329-0.0194-0.49071-0.11642-0.69003-0.40287-0.27023-0.75918-0.31679-1.228-0.17357" fill="#6b380e"/>
    <path d="m70.183 62.582c-0.15099 0.04621-0.78246 0.0314-0.95885 0.06668-0.0254 0.0508 0.12171 0.3937 0.09419 0.43498 0.20285-0.06209 0.32561-0.08114 0.41169-0.02081 0 0-0.09843 0.43744-0.01623 0.67345 0.0956 0.27517 0.29951 0.50659 0.6223 0.52458 0.42474 0.02328 0.71826-0.28716 0.74718-0.64629 0.01693-0.21449 0.03775-0.29951-0.03281-0.56762 0.09031-0.07091 0.3877 0.06385 0.3877 0.06385-0.01764-0.54257-0.7747-0.67522-1.2552-0.52881" fill="#3a1e0a"/>
    <path d="m77.198 63.809c0.91722 1.2273 2.606 1.2615 3.8753 0.38735 0.36301-0.24977 0.45932-0.64664 0.39864-0.90029-0.14111-0.58843-4.0372-0.51541-4.1384-0.04621-0.05292 0.24553-0.26564 0.32844-0.13547 0.55915" fill="#fff"/>
    <path d="m81.653 63.364c-0.83467-1.2912-2.9739-1.4496-4.1402-0.44203-0.18309 0.15804-0.6798 0.75459-0.54892 0.98213 0.10795 0.18768 0.20884 0.08572 0.30515-0.0568 0.10936-0.16192 0.26635-0.33267 0.41945-0.46531 0.49883-0.43356 1.3166-0.52846 1.9699-0.44909 0.53516 0.06526 0.96414 0.23213 1.4235 0.70732 0.14817 0.15311 0.30621 0.32068 0.47413 0.31009 0.25188-0.01588 0.22719-0.3556 0.09701-0.58632" fill="#3a1e0a"/>
    <path d="m79.408 62.707c0.22119 0.06385 0.51082 0.19332 0.74754 0.16157 0.0889 0.16581 0.14393 0.35913 0.16404 0.56797 0.06385 0.65828-0.35595 1.2203-1.0672 1.2689-0.76518 0.05221-1.1183-0.45826-1.1829-1.1162-0.02434-0.25294 0.01199-0.49107 0.10654-0.6918 0.40076-0.27552 0.75812-0.32702 1.2319-0.1905" fill="#6b380e"/>
    <path d="m79.369 62.58c0.1524 0.0441 0.78705 0.02081 0.9645 0.05327 0.02646 0.05045-0.11571 0.39546-0.08749 0.43639-0.20496-0.05927-0.32879-0.0769-0.41416-0.01517 0 0 0.10548 0.43603 0.02681 0.6731-0.09208 0.27658-0.29351 0.51047-0.61736 0.5334-0.42686 0.02893-0.72672-0.27764-0.7613-0.63606-0.02046-0.21449-0.04269-0.2988 0.02399-0.56797-0.09172-0.06985-0.40499 0.06668-0.40499 0.06668 0.0092-0.54292 0.78458-0.68368 1.27-0.54363" fill="#3a1e0a"/>
    <path d="m77.58 70.619c-0.74366 0.36336-1.8299 0.40393-2.8328 0.3937-0.05221 0-0.09807-0.0042-0.14076 0-0.81703-0.0099-1.6711 0.10689-2.5234-0.32209-0.35983-0.18098-0.59902 0.33655-0.21555 0.49001 0.95356 0.38135 1.7261 0.34643 2.7774 0.32032 0.04233-0.0011 0.08149 0.0042 0.11853 0 1.1917 0.03034 2.122-0.06103 3.0459-0.39723 0.38876-0.14146 0.13264-0.66181-0.22931-0.48472" fill="#ce7d5d"/>
    <path d="m74.87 69.15h-0.03069c-0.66499 0-1.0347-0.26035-1.3363-0.52282-0.14887-0.12912-0.09701-0.21167 0.11077-0.21167 0.01835 0 0.0381 3.53e-4 0.05891 0.0018 0.35101 0.02258 0.80998 0.03493 1.2615 0.03493 0.4004 0 0.79516-0.0095 1.1035-0.02999 0.02222-0.0014 0.04339-0.0021 0.06279-0.0021 0.20391 0 0.25329 0.07902 0.10583 0.20708-0.30198 0.26247-0.67134 0.52282-1.3363 0.52282" fill="#f0a77a"/>
  </g>
</svg>
