<?xml version="1.0" encoding="UTF-8"?>
<svg width="83.57mm" height="199.44mm" version="1.1" viewBox="0 0 83.57 199.44" xmlns="http://www.w3.org/2000/svg">
  <g transform="translate(-52.793 -44.527)">
    <path d="m101.57 60.951c-0.0794 1.826 0.79093 3.7299 1.9325 3.7673 0.64947 0.02117 1.699-1.7586 1.9967-3.6004 0.28963-1.7907-0.0589-3.755-1.7187-3.3997-0.96908 0.20743-2.1311 1.4065-2.2105 3.2329" fill="#f2ac7f"/>
    <path d="m87.494 60.951c0.07973 1.826-0.79058 3.7299-1.9322 3.7673-0.64982 0.02117-1.6993-1.7586-1.9971-3.6004-0.28928-1.7907 0.05927-3.755 1.7187-3.3997 0.96943 0.20743 2.1311 1.4065 2.2105 3.2329" fill="#f2ac7f"/>
    <path d="m136.14 151.23-4e-3 -6e-3c-0.43356-0.69109-0.88123-1.6669-1.3137-2.6102-0.4512-0.9832-0.87736-1.9121-1.2855-2.5333-1.1899-1.8115-2.4042-2.6088-3.4488-3.2138-0.64593-0.37394-1.1292-0.94156-1.3543-1.5769-0.70062-2.9619-0.95603-6.2304-1.203-9.7794-0.15981-2.2976-0.32527-4.6732-0.60996-6.8231-0.33514-2.5266-0.94332-3.9564-1.5314-5.3396-0.66357-1.5607-1.2905-3.0346-1.33-5.9584-0.0201-1.4979-0.0617-4.6316-0.0716-6.1337-0.0152-2.1512-0.20778-3.708-0.58173-5.9993-0.35135-2.1523-0.80679-5.6466-0.81102-5.6466v3.53e-4c-0.11007-0.8636-0.0409-1.8119 0.0325-2.8152 0.10124-1.3875 0.20602-2.8222-0.19403-4.0629-0.80434-2.4941-2.1936-4.5399-3.9123-5.7598-2.1004-1.4912-4.978-2.225-6.5059-2.5294-0.50694-0.10089-1.0029-0.28116-1.4746-0.53481-2.7869-1.5-7.432-3.2819-8.8396-3.7881-0.46814-0.16828-0.78246-0.62971-0.78246-1.1479v-5.1185l-1.2495 0.10372c-1.67 0.13935-3.3969 0.28363-5.0835 0.37853-1.7096-0.0949-3.4368-0.23918-5.1072-0.37853l-1.2488-0.10372 3.53e-4 5.1185c0 0.51823-0.31468 0.97966-0.78281 1.1479-1.4076 0.50624-6.0526 2.2881-8.8396 3.7881-0.47166 0.25365-0.96802 0.43392-1.4746 0.53481-1.5282 0.30445-4.4051 1.0382-6.5059 2.5294-1.7184 1.2199-3.108 3.2653-3.912 5.7598-0.40005 1.2411-0.29563 2.6755-0.19438 4.0633 0.07338 1.0037 0.14217 1.9512 0.04198 2.7746-0.01094 0.03175-0.46884 3.5317-0.82056 5.6861-0.37394 2.2913-0.56621 3.8481-0.58138 5.9993-0.0099 1.5021-0.05186 4.6358-0.07161 6.1337-0.03951 2.9238-0.66675 4.3977-1.3303 5.9584-0.58808 1.3832-1.1959 2.813-1.5311 5.3396-0.2854 2.1502-0.4505 4.5261-0.6103 6.8241-0.2473 3.5486-0.50271 6.8167-1.197 9.7571-0.23142 0.65652-0.71438 1.2241-1.36 1.5981-1.0446 0.60502-2.2588 1.4023-3.4491 3.2138-0.40816 0.62124-0.83432 1.5494-1.2852 2.5326-0.43286 0.94403-0.88053 1.9198-1.3176 2.6173-0.23248 0.40252-0.2794 0.7052-0.14358 0.92357 0.12876 0.20814 0.39017 0.29563 0.79904 0.27164 1.2672-0.079 2.0754-1.5032 2.3414-1.971l0.04798-0.0843c0.36195-0.62724 0.61348-1.0054 0.78387-1.2333-0.09419 0.43674-0.28928 1.2245-0.66604 2.6127l-0.07655 0.28398c-0.5849 2.2324-0.87559 3.9723-0.9151 5.4769-0.02822 1.082 0.33726 1.8295 1.0326 2.1163 0.26458 0.4311 0.60995 0.6851 1.0269 0.75671 0.66322 0.11148 1.3123-0.28434 1.5854-0.4826 0.30939 0.20743 0.71085 0.24483 1.1504 0.10125 0.59655-0.19509 1.2111-0.7112 1.4411-1.1755 0.09631 0.0198 0.20849 0.0226 0.33514 0.01 0.5715-0.0646 1.3755-0.49742 1.8831-1.319 0.66922-1.0834 1.0118-2.2504 1.343-3.3793 0.09454-0.32208 0.18768-0.63958 0.28681-0.94721 0.10724-0.33372 0.22648-0.69073 0.35172-1.065 0.7299-2.1802 1.6376-4.8941 1.5074-7.003-0.04269-0.69004-0.01482-1.3677 0.0829-2.0179l0.01164 3e-3 0.03034-0.22648 0.01376-0.0804 0.02611-0.14076c0.02081-0.11006 0.04198-0.22083 0.0695-0.33196 0.77611-3.2304 1.9166-5.8741 3.0194-8.8184 1.4817-3.9564 2.8815-7.6934 3.0582-11.128 0.01482-0.28963 0.02716-0.59478 0.04022-0.92075 0.09278-2.3079 0.23319-5.7958 1.7431-12.591 0.61383-2.7644 1.0407-5.0595 1.1483-5.9909 0.02822 0.0631 0.06068 0.13193 0.10195 0.21343 0 1.6785 1.0827 5.7108 1.9519 8.3203 0.60748 1.8235 1.1815 3.5458 1.2259 4.3099 0.0949 1.633 0.14852 3.6149 0.19579 6.404 0.03069 1.8013 0.05962 2.2991 0.09666 3.4939 0.08678 2.8021-0.38841 5.0546-0.89147 7.4394-0.46955 2.2282-0.95568 4.5321-1.1204 7.6172-0.61136 4.0668-1.8948 14.659-0.61172 25.138 0.37359 6.6414 1.8101 11.671 2.9647 15.713 0.80998 2.8356 1.5095 5.2839 1.6824 7.6253 0.08114 1.0982 0.06668 2.0828-0.04092 2.7718-0.17074 1.0971-0.4258 3.435-0.60607 5.473l-0.05468 0.0141c-0.09737 1.1395-0.16792 2.1548-0.18133 2.7538-0.03845 1.7494 0.01058 4.4919 0.12382 5.9626 0.22613 3.2459 0.77011 6.0152 1.4101 9.2615 0.25753 1.3064 2.7919 12.099 3.0984 14.852 0.04586 0.41246 0.10125 0.82172 0.1644 1.232 0.07726 0.50228 0.15487 1.2639 0.14676 1.6845-0.02399 0.89888-0.06844 1.5871-0.4198 2.2564-0.30515 0.57962-1.113 1.048-2.0482 1.5914-0.89711 0.52063-1.9135 1.1106-2.8226 1.9702-0.24342 0.23012-0.34996 0.63581-0.27799 1.0576 0.10125 0.59202 0.52352 1.0936 1.1832 1.3858 1.3028 0.39508 2.4282 0.74511 3.4057 1.0484 3.1997 0.99453 4.8352 1.5029 5.9189 1.5029 0.12171 0 0.23601-7e-3 0.34537-0.019 1.7223-0.20353 3.2886-0.88732 3.0872-4.4827-0.04339-0.76634-0.19614-1.5746-0.46743-2.471-0.60431-1.9935-1.0389-6.4692-1.0971-6.9624-0.04022-0.57739-0.08467-1.144-0.12947-1.7103-0.1397-1.7825-0.28469-3.6251-0.28469-5.7746 0-0.24307 0.0011-0.4801 0.0025-0.7123l0.02575 6.7e-4c0.01623-1.5448 0.06985-3.6501 0.1658-4.8679 0.06385-0.80504 0.1517-1.7981 0.24906-2.8932 0.32773-3.6942 0.69427-9.9338 0.60501-12.623-0.0441-1.3374-0.1143-2.5844-0.20814-3.7617-0.06526-0.86607-0.14146-1.699-0.23354-2.4906l-0.01517 2e-3c-0.08855-0.72002-0.18697-1.4136-0.29916-2.0772-0.3108-1.8422-0.38559-3.7624-0.22225-5.7062 0.15769-1.8711 0.19438-3.829 0.2166-4.9985 0.01023-0.54892 0.01835-0.98213 0.03422-1.1151 0.96626-8.2585 1.0015-18.354 1.0322-27.261 0.0088-2.5072 0.01693-2.9859 0.04657-5.1446h1.5173c0.02999 2.1586 0.0381 2.6374 0.04692 5.1446 0.03069 8.9066 0.06562 19.002 1.0322 27.26 0.01517 0.13335 0.02364 0.56585 0.03387 1.113 0.02187 1.1702 0.05891 3.1288 0.21625 5.001 0.16334 1.9442 0.0889 3.8643-0.2219 5.7062-0.09631 0.57185-0.18344 1.1645-0.26247 1.7776l-0.06562 5e-3c-0.22578 1.8549-0.37571 3.9028-0.45261 6.2085-0.04127 1.2442 0.04198 4.1772 0.17815 6.0667 0.15804 2.2838 0.26247 4.8048 0.44768 6.8909 0.09701 1.0957 0.18521 2.0891 0.24871 2.8948 0.01058 0.13163 0.02011 0.26529 0.02963 0.39896 0.08149 1.288 0.1203 3.4911 0.1203 5.1806 0 2.2178-0.13899 4.1133-0.2734 5.9468-0.06385 0.87023-0.12806 1.744-0.17851 2.6546-0.0956 1.2566-0.29245 4.1119-0.83291 5.9244-0.27834 0.93211-0.4258 1.8511-0.43991 2.7308-0.05398 3.3409 1.6249 3.9678 3.0935 4.1406 1.0823 0.12554 2.7072-0.37717 6.2692-1.4842 0.97825-0.30413 2.1054-0.65443 3.4336-1.059 0.63605-0.28291 1.0587-0.78493 1.1596-1.3772 0.0727-0.42305-0.0342-0.82832-0.27764-1.0587-0.90981-0.86074-1.9272-1.4514-2.825-1.972-0.93628-0.54363-1.7448-1.0132-2.05-1.5936-0.35242-0.66915-0.39687-1.3578-0.42086-2.256-0.0201-1.0762-0.0413-2.1897 0.11748-3.4717 0.29739-2.1798 2.8183-12.98 3.0762-14.286 0.91016-4.6193 1.6298-9.4477 1.5092-14.887-8e-3 -0.38347-0.0413-0.94227-0.0885-1.59-0.0801-1.1751-0.22225-2.7453-0.37253-4.1818l-0.0116-7e-4c-0.12277-1.1472-0.24765-2.1795-0.34502-2.8053-0.10724-0.68968-0.12206-1.6743-0.0409-2.7718 0.17321-2.3414 0.87242-4.7897 1.6824-7.6253 1.1546-4.0414 2.5915-9.0713 2.9637-15.699 1.2841-10.493 7.1e-4 -21.084-0.60854-25.131-0.16686-3.1052-0.65264-5.4088-1.1229-7.6369-0.50271-2.3851-0.9779-4.6376-0.89076-7.4397 0.0367-1.1938 0.0656-1.6898 0.096-3.4893 0.0473-2.7908 0.10089-4.7745 0.19614-6.4086 0.0444-0.76377 0.61807-2.486 1.2259-4.3095 0.85866-2.5781 2.0094-7.0263 2.0585-8.2716 0 0.0205 0.27834 1.2615 0.44239 1.5236 0.10195 0.91158 0.0808 1.4111 0.70167 4.2048 1.5095 6.7959 1.6499 10.284 1.7427 12.592 0.013 0.32596 0.0254 0.63076 0.0402 0.92039 0.1771 3.4346 1.5766 7.1716 3.0582 11.128 1.1028 2.9443 2.2433 5.5876 3.0198 8.8191 0.0265 0.10654 0.0473 0.21378 0.0677 0.32103l0.0279 0.15028 0.0138 0.0804 0.0346 0.21907 6e-3 -1e-3c0.0988 0.65229 0.127 1.3321 0.084 2.0239-0.13017 2.1089 0.77752 4.8228 1.5074 7.003 0.12524 0.3743 0.24483 0.73131 0.35172 1.065 0.0991 0.30763 0.19226 0.62513 0.28681 0.94757 0.33126 1.1285 0.6738 2.2955 1.3434 3.3789 0.50729 0.82162 1.3113 1.2545 1.8831 1.319 0.1263 0.0138 0.23883 0.0106 0.33479-0.01 0.23001 0.46426 0.84455 0.98037 1.4414 1.1755 0.43921 0.14323 0.84067 0.10618 1.1501-0.10125 0.2734 0.19826 0.92145 0.59443 1.5857 0.4826 0.41663-0.0716 0.76165-0.32561 1.0266-0.75671 0.69497-0.28681 1.0612-1.0343 1.0329-2.1167-0.0399-1.5039-0.33055-3.2442-0.91511-5.4765l-0.0773-0.28434c-0.37641-1.3868-0.5715-2.1745-0.66534-2.6109 0.17216 0.23001 0.42686 0.61348 0.79481 1.2513l0.037 0.0649c0.26564 0.46778 1.0739 1.892 2.341 1.971 0.40922 0.024 0.67063-0.0635 0.79939-0.27164 0.13547-0.21837 0.0885-0.52105-0.14358-0.92357" fill="#ffc697"/>
    <path d="m100.9 74.633 7.1e-4 -4.0037c0-0.51188 0.15699-1.0171 0.45438-1.4238 0.63535-0.86995 1.4658-2.2398 1.8157-3.8248 1.022-4.6348 0.80681-10.654 0.80469-10.706 0-6.0889-3.4054-9.8065-9.084-9.9423l-0.06703-0.0081v0.21202l-0.04445-0.21131-0.12629 3.53e-4 -0.07197-0.0011-0.24977 0.0011-0.0762-0.0011-0.03387 0.21202-0.01517-0.21202-0.04127 6e-3c-5.6194 0.1397-9.1098 3.9504-9.1098 9.9335-0.0032 0.06491-0.32632 6.5514 0.85725 10.88 0.43886 1.6034 1.227 2.8667 1.8112 3.6438 0.31856 0.4251 0.48719 0.94544 0.48719 1.4683l3.53e-4 3.9776c0 0.51823 12.688 0.51823 12.688 0" fill="#ffc697"/>
    <path d="m94.552 127.28h-3.52e-4c-0.13018 0-0.19826-0.11466-0.23566-0.76518-0.28258-4.9576-0.03634-12.062 0.0829-15.393 0.02575-0.72108 0.04868-0.77435 0.17921-0.77435h3.53e-4c0.13088 3.6e-4 0.15381 0.0529 0.1785 0.77506 0.3115 9.1352 0.1524 13.122 0.02963 15.388-0.03598 0.65476-0.10407 0.77012-0.2346 0.77012" fill="#f2ac7e"/>
    <path d="m89.141 104.95s2.2871-2.0874 2.2871-3.9151c0 0 0.47449-10.08 0.80292-10.08 0.09737 0 0.18203 0.89147 0.23742 3.2025 0.02469 1.0174 0.5461 6.9712-0.54434 8.5086-1.337 1.8849-2.7831 2.2839-2.7831 2.2839" fill="#eea376"/>
    <path d="m100.03 104.7s-1.5956-0.59831-2.6391-2.0345c-1.1081-1.5247-0.56903-7.4912-0.54469-8.5086 0.05539-2.311 0.14005-3.2025 0.23777-3.2025 0.32808 0 0.80257 10.08 0.80257 10.08 0 1.8277 2.1435 3.6657 2.1435 3.6657" fill="#eea376"/>
    <path d="m104.18 189.37c-0.21343 0-0.48013-0.0769-0.66816-0.14182-0.68121-0.2353-1.5279-0.3302-2.2666-0.3302-0.67346 0-1.2573 0.079-1.5438 0.2025-0.09913 0.043-0.21943 0.0949-0.32491 0.0949-0.07655 0-0.14534-0.0275-0.19297-0.10512-0.10372-0.17075 0.06844-0.31221 0.12488-0.35878 0.35031-0.2861 1.0513-0.77046 1.8122-0.80327h1e-3c1.2735 0 1.8694 0.28892 2.7718 0.72496l0.33514 0.16121c0.1016 0.0483 0.37183 0.1771 0.28011 0.3997-0.0469 0.11501-0.17357 0.15593-0.32879 0.15593" fill="#f2ac7e"/>
    <path d="m84.926 189.37c-0.15522 0-0.28187-0.0406-0.32914-0.15558-0.09102-0.22295 0.17886-0.35136 0.28046-0.39934l0.33584-0.16157c0.90241-0.43674 1.4982-0.72496 2.7637-0.72496 0.77047 0.0328 1.4704 0.51717 1.8203 0.80292 0.0568 0.0466 0.22931 0.18838 0.12524 0.35913-0.04692 0.0776-0.11571 0.10442-0.19226 0.10442-0.10548 0-0.22613-0.0515-0.32526-0.0938-0.28681-0.12382-0.86995-0.20285-1.5434-0.20285-0.73872 0-1.5861 0.0952-2.2673 0.3302-0.18768 0.0649-0.45508 0.14147-0.66816 0.14147" fill="#f2ac7e"/>
    <path d="m68.727 122.89c-0.1016 0-0.20849-6e-3 -0.32138-0.0166-0.5782-0.10336-1.0562-0.83537-1.3077-1.3063-0.06103-0.11536-0.0702-0.17322-0.03457-0.17322 0.0321 0 0.09948 0.0462 0.19685 0.1397 0.28681 0.27658 0.97825 0.49424 1.7522 0.49424 0.52564 0 1.0897-0.10054 1.5907-0.35101 0.20426-0.1023 0.39158-0.15028 0.51082-0.15028 0.16757 0 0.20108 0.0949-0.04198 0.26705-0.89958 0.63641-1.4101 1.0964-2.3449 1.0964" fill="#f2ac7e"/>
    <path d="m120.38 122.89c-0.93486 0-1.4453-0.46002-2.3449-1.0964-0.24306-0.17216-0.20955-0.26705-0.042-0.26705 0.11924 0 0.30657 0.048 0.51083 0.15028 0.50094 0.25047 1.065 0.35101 1.5907 0.35101 0.774 0 1.4654-0.21766 1.7522-0.49424 0.0974-0.0935 0.16475-0.1397 0.19685-0.1397 0.0356 0 0.0268 0.0579-0.0346 0.17322-0.25153 0.47096-0.72955 1.203-1.3078 1.3063-0.11289 0.0109-0.21978 0.0166-0.32138 0.0166" fill="#f2ac7e"/>
    <path d="m94.219 44.936" fill="#686c6d"/>
    <path d="m111.42 140.67c-0.15064-2.7894-0.56656-4.9675-0.94439-6.791-0.0109-0.0519-0.0423-0.0974-0.0871-0.12594-0.0452-0.0286-0.0991-0.0385-0.15099-0.0254-10.808 2.5675-28.032 1.2488-31.136-0.0547-0.09913-0.0423-0.21484 5e-3 -0.25718 0.10512l-0.27376 0.66146c-0.33761 1.6312-0.70097 3.6463-0.83679 6.2015-0.31327 2.0853-0.87066 6.3535-1.0795 11.513-0.0021 0.0572 0.02046 0.11253 0.06209 0.15134 1.7921 1.6813 5.4063 2.9538 9.2075 3.242 0.52846 0.0402 1.0569 0.0607 1.5699 0.0607 0.68086 0 1.3536-0.0388 1.9992-0.11536 0.26211-0.03 0.51788-0.0677 0.768-0.11112 0.0575-0.0102 0.11289-0.0219 0.16828-0.0339l0.10266-0.0215c0.17639-0.0346 0.35172-0.0702 0.52105-0.11183 0.06703-0.0162 0.13159-0.0342 0.1965-0.0522l0.08079-0.0222c0.16192-0.0438 0.32138-0.0889 0.47554-0.13935 0.0829-0.0268 0.16439-0.0557 0.24553-0.084 0.16051-0.0572 0.31644-0.11712 0.47554-0.18415 0.06385-0.0268 0.12771-0.0536 0.1905-0.0822 0.16792-0.0759 0.32844-0.15663 0.48401-0.24095l0.127-0.0677c0.40146-0.22895 0.75177-0.48013 1.0509-0.75565 0.02364-0.0251 0.10619-0.0861 0.17074-0.0882 0.03598-1e-3 0.08819 8e-3 0.24236 0.15134 0.43886 0.33866 0.96696 0.63923 1.5695 0.89358 0.03528 0.0145 0.07126 0.0282 0.1076 0.0416l0.09878 0.0384c0.12382 0.049 0.24765 0.0984 0.37571 0.14253 0.07832 0.0268 0.1584 0.0519 0.23883 0.0769l0.1651 0.0512c0.06703 0.0215 0.13406 0.0427 0.20285 0.0628 0.14041 0.0395 0.28434 0.0751 0.42757 0.11007l0.20179 0.0504c0.16616 0.0377 0.33549 0.072 0.50553 0.10443l0.14499 0.0282c0.1838 0.0332 0.36971 0.0624 0.59267 0.0949l0.04586 7e-3c2.0454 0.28364 4.4662 0.22155 6.6428-0.17109 2.8811-0.51859 5.1304-1.5258 6.3345-2.836 0.0353-0.0381 0.0536-0.0885 0.0515-0.14041-0.20708-5.1788-0.76341-9.4456-1.0777-11.534" fill="#b2a39d"/>
    <path d="m104.17 54.671c-1e-3 -6.2078-3.4689-9.9967-9.2562-10.134l-0.06738-0.0081h-0.04868l-0.02081-0.0011-0.12206 7.06e-4 -0.07585-0.0011-0.24624 0.0011-0.0762-0.0011-0.02716 0.0014-0.05327 3.53e-4 -0.01764 0.0042c-5.7376 0.14288-9.3017 4.0241-9.301 10.12-0.0067 0.13723-0.16369 3.4001 0.16722 6.8375 0.31397 3.266 1.7039 5.8349 4.3826 7.4327 1.4781 0.88159 3.7313 0.59619 5.3672 0.59619 1.3067 0 3.073 0.17145 4.2862-0.39511 3.1478-1.4697 4.5508-4.0386 4.8934-7.6842 0.32773-3.4907 0.22083-6.635 0.2159-6.7698" fill="#593014"/>
    <path d="m76.181 104.11c0.09137-0.52599 0.15558-0.94721 0.18909-1.2365 0.02822 0.0631 0.06068 0.13193 0.10195 0.21343v3.5e-4c-0.08678 0.28928-0.18203 0.66357-0.29104 1.0227" fill="#f3c2a8"/>
    <path d="m75.931 104.81c-0.20073-2.0821-0.9204-4.0905-1.1585-5.0433-0.1905-0.76376-0.33972-1.5448-0.39864-2.3308-0.01199-0.15875-0.11748-0.56938-0.0049-0.70097 0.06103-0.07197 0.11783-0.1016 0.16969-0.1016 0.09313 0 0.17039 0.09631 0.23107 0.2159 0.10548 0.20743 0.10089 0.6223 0.14958 0.85408 0.07585 0.36336 0.16228 0.7239 0.25823 1.0823 0.22366 0.83361 1.0791 3.6146 1.2943 4.3042-3.53e-4 0-3.53e-4 3.5e-4 -3.53e-4 3.5e-4v-3.5e-4c-0.04128-0.0815-0.07373-0.15029-0.10195-0.21343-0.03351 0.28927-0.09772 0.71049-0.18909 1.2365-0.07585 0.25153-0.15875 0.4953-0.24941 0.69709" fill="#f2ac7e"/>
    <path d="m113.24 104.76c-0.19403-0.43074-0.33161-0.98954-0.46214-1.4524 6e-3 -0.0617 9e-3 -0.11818 0.0116-0.16969 0 0.0205 0.27834 1.2615 0.44239 1.5236 3e-3 0.0289 6e-3 0.0575 9e-3 0.0854-3.6e-4 5e-3 -7.1e-4 9e-3 -1e-3 0.013" fill="#f3c2a8"/>
    <path d="m113.24 104.75c-3e-3 -0.0279-6e-3 -0.0564-9e-3 -0.0854-0.16404-0.26211-0.44238-1.5032-0.44238-1.5236-2e-3 0.0515-6e-3 0.10795-0.0116 0.16969-0.018-0.0639-0.036-0.1263-0.054-0.18592 0.21519-0.68968 1.046-3.5525 1.2693-4.3864 0.0963-0.35807 0.18274-0.71896 0.25859-1.082 0.0483-0.23178 0.0441-0.647 0.14922-0.85443 0.0607-0.11924 0.13829-0.21555 0.23142-0.21555 0.0519 0 0.10831 0.02963 0.16969 0.1016 0.11254 0.13159 7e-3 0.54222-5e-3 0.70097-0.0593 0.78599-0.20849 1.567-0.39899 2.3308-0.23742 0.95074-0.95462 2.9531-1.1571 5.0303" fill="#f2ac7e"/>
    <path d="m56.913 160.3c-0.02575 0-0.13723-0.079-0.13723-0.079-0.22648-0.12982-0.7299-0.65863-0.7941-0.69744 0.0056-1e-3 0.01164-3e-3 0.01764-5e-3 0.06773 0.042 0.14005 0.079 0.2159 0.11042 0.19191 0.31256 0.42651 0.53234 0.69956 0.65652 0.0056 0.0102 0.0042 0.0145-0.0018 0.0145" fill="#eeae8b"/>
    <path d="m56.915 160.28c-0.27305-0.12418-0.50765-0.34396-0.69956-0.65652-0.07585-0.0314-0.14817-0.0684-0.2159-0.11042 0.37218-0.13194 0.66252-2.1131 1.1853-4.142 0.32879-1.2767 0.56303-2.5929 0.77435-3.4205 0.02928-0.11607 0.07867-0.16405 0.17533-0.16405 0.06138 0 0.14217 0.0194 0.24906 0.0536 0.2032 0.0645 0.40499 0.0794 0.33831 0.26528-0.24553 0.6851-0.63429 2.1505-0.96414 3.4304-0.47872 1.8577-1.113 4.3021-0.8449 4.7403 7.05e-4 1e-3 0.0014 3e-3 0.0021 4e-3" fill="#eea376"/>
    <path d="m55.974 159.52c-0.01376 0-0.01588-0.01-0.0127-0.0194 7.05e-4 -3e-3 0.0018-6e-3 0.0035-8e-3 6e-3 4e-3 0.01235 8e-3 0.0187 0.0123-3.53e-4 4e-3 -7.06e-4 9e-3 -0.0018 0.0148-0.0028 3.5e-4 -0.0056 7.1e-4 -0.0078 7.1e-4" fill="#eeae8b"/>
    <path d="m55.984 159.5c-0.0064-4e-3 -0.0127-8e-3 -0.0187-0.0123 0.0035-6e-3 0.0085-0.0109 0.01235-0.0109 0.0046 0 0.0081 6e-3 0.0064 0.0233" fill="#eea376"/>
    <path d="m58.463 160.13c0.15205-0.0804 0.27728-0.16404 0.36442-0.22719 0.12136 0.0811 0.25647 0.13653 0.40252 0.16475-0.03528-4e-3 -0.08255-6e-3 -0.13688-6e-3 -0.18627 0-0.45649 0.0222-0.63006 0.0681" fill="#eeae8b"/>
    <path d="m58.356 160.16c-0.0067-0.037-0.01588-0.0476-0.02187-0.0501 0.0042-2e-3 0.01058-7e-3 0.01976-0.0166 0.33514-0.34113 0.73554-2.582 1.1504-4.1109 0.43639-1.6097 0.77929-2.9221 0.77188-3.187-0.0035-0.13512 0.10724-0.18168 0.24518-0.18168 0.06138 0 0.1277 9e-3 0.19191 0.0236 0.2092 0.0476 0.44344 0.17039 0.32103 0.33126-0.12876 0.16863-0.45261 1.3374-0.88371 2.9228-0.42439 1.5596-1.3028 3.9497-0.8957 4.1367 0.0049 2e-3 0.0092 3e-3 0.0127 4e-3 -0.0049 6e-3 -0.01058 0.0162-0.01693 0.0307-0.0063-1e-3 -0.01341-2e-3 -0.02081-3e-3 -0.14605-0.0282-0.28116-0.0836-0.40252-0.16475-0.08714 0.0631-0.21237 0.14676-0.36442 0.22719-0.04233 0.0113-0.07867 0.0236-0.10689 0.0378m-0.02646-0.0483c-0.0011 0-0.0014-3.6e-4 -7.06e-4 -1e-3 3.53e-4 -7.1e-4 0.0014-1e-3 0.0028-1e-3 7.06e-4 0 0.0018 0 0.0025 3.5e-4 -0.0021 1e-3 -0.0039 2e-3 -0.0046 2e-3m0.94192-0.0794c-0.0011 0-0.0025-3.5e-4 -0.0039-3.5e-4 0.0063-8e-3 0.01094-0.0109 0.01376-0.0109 0.0028 0 0.0035 3e-3 0.0021 6e-3s-0.0053 6e-3 -0.01199 6e-3" fill="#eea376"/>
    <path d="m60.846 159.48s7.06e-4 -1e-3 0.0018-2e-3c-0.0011 1e-3 -0.0018 2e-3 -0.0018 2e-3m0.0018-2e-3h3.53e-4 -3.53e-4m3.53e-4 0c0-3.5e-4 0-3.5e-4 3.53e-4 -3.5e-4 -3.53e-4 0-3.53e-4 0-3.53e-4 3.5e-4m3.53e-4 -3.5e-4v-3.5e-4 3.5e-4m0-3.5e-4c3.52e-4 -7.1e-4 0.0011-1e-3 0.0014-2e-3 -3.53e-4 7e-4 -0.0011 1e-3 -0.0014 2e-3m0.0014-2e-3c3.52e-4 -3.6e-4 3.52e-4 -3.6e-4 3.52e-4 -3.6e-4l-3.52e-4 3.6e-4m3.52e-4 -3.6e-4c0.0011-1e-3 0.0025-3e-3 0.0042-5e-3 -0.0018 2e-3 -0.0032 4e-3 -0.0042 5e-3m0.0042-5e-3c0-3.5e-4 0-3.5e-4 3.53e-4 -7e-4 -3.53e-4 3.5e-4 -3.53e-4 3.5e-4 -3.53e-4 7e-4m3.53e-4 -7e-4c7.06e-4 -7.1e-4 0.0014-1e-3 0.0021-2e-3 -0.0011 1e-3 -0.0014 2e-3 -0.0021 2e-3m0.0021-2e-3v-3.5e-4 3.5e-4m0-3.5e-4c3.53e-4 -3.6e-4 0.0011-7.1e-4 0.0014-1e-3 -3.53e-4 7.1e-4 -0.0011 1e-3 -0.0014 1e-3m0.0014-1e-3v-3.5e-4 3.5e-4m0-3.5e-4c3.53e-4 0 7.06e-4 -3.5e-4 7.06e-4 -7e-4 0 3.5e-4 -3.53e-4 7e-4 -7.06e-4 7e-4m7.06e-4 -7e-4c3.53e-4 0 3.53e-4 -3.6e-4 3.53e-4 -7.1e-4 0 3.5e-4 0 7.1e-4 -3.53e-4 7.1e-4m3.53e-4 -7.1e-4c0.0032-4e-3 0.0063-7e-3 0.0088-0.0102-0.0032 4e-3 -0.0064 7e-3 -0.0088 0.0102m0.0088-0.0102c3.52e-4 -3.5e-4 3.52e-4 -7.1e-4 7.05e-4 -1e-3 -3.53e-4 3.5e-4 -3.53e-4 7.1e-4 -7.05e-4 1e-3m7.05e-4 -1e-3c0.0025-3e-3 0.0039-5e-3 0.0039-5e-3 -0.0014 2e-3 -0.0025 3e-3 -0.0039 5e-3" fill="#eea376"/>
    <path d="m61.131 159.23c0.12206-0.13512 0.22154-0.27446 0.28857-0.40958 0.05715 0.0116 0.11994 0.0176 0.18838 0.0176 0.02999 0 0.06068-1e-3 0.09278-4e-3 -0.10513 0.0328-0.35454 0.22014-0.56974 0.39547" fill="#eeae8b"/>
    <path d="m60.873 159.45c0.67663-0.83079 1.6923-6.6834 1.7014-6.7289 0.02646-0.12771 0.11148-0.16016 0.2286-0.16016 0.05891 0 0.12594 8e-3 0.19756 0.0169 0.31962 0.0384 0.42263 0.0783 0.34361 0.26882-0.06562 0.15734-1.7868 5.8321-1.337 5.8738 0.0085 7e-4 0.01623 1e-3 0.02293 1e-3 0.02081 0 0.03493-3e-3 0.04445-7e-3 -0.0063 8e-3 -0.01446 0.0219-0.02222 0.043-0.11536 0.036-0.2279 0.0639-0.33091 0.0755-0.0063 7e-4 -0.01341 2e-3 -0.02117 5e-3 -0.0321 2e-3 -0.06279 4e-3 -0.09278 4e-3 -0.06844 0-0.13123-6e-3 -0.18838-0.0176-0.06703 0.13512-0.16651 0.27446-0.28857 0.40958-0.09878 0.0801-0.1905 0.15769-0.25753 0.2166m1.2016-0.73519c0.0063-8e-3 0.01164-0.0113 0.01341-0.0113 0.0028 0 0.0011 5e-3 -0.0078 9e-3 -0.0018 1e-3 -0.0035 2e-3 -0.0056 2e-3" fill="#eea376"/>
    <path d="m132.24 160.3c-6e-3 0-7e-3 -4e-3 -2e-3 -0.0145 0.2734-0.12418 0.50765-0.34396 0.69956-0.65652 0.0759-0.0314 0.14781-0.0684 0.2159-0.11042 6e-3 2e-3 0.0116 4e-3 0.0176 5e-3 -0.0642 0.0388-0.56727 0.56762-0.7941 0.69744 0 0-0.11148 0.079-0.13723 0.079" fill="#eeae8b"/>
    <path d="m132.24 160.28c7e-4 -1e-3 1e-3 -2e-3 2e-3 -4e-3 0.26811-0.43815-0.36619-2.8826-0.84491-4.7403-0.32984-1.2799-0.71825-2.7453-0.96414-3.4304-0.0663-0.18591 0.13512-0.20073 0.33867-0.26528 0.10654-0.0342 0.18732-0.0536 0.24871-0.0536 0.0967 0 0.14605 0.048 0.17533 0.16405 0.21131 0.82761 0.44556 2.1438 0.7747 3.4205 0.52246 2.0285 0.8128 4.0093 1.185 4.142-0.0681 0.042-0.14005 0.079-0.2159 0.11042-0.19191 0.31256-0.42616 0.53234-0.69956 0.65652" fill="#eea376"/>
    <path d="m133.18 159.52c-2e-3 0-5e-3 -3.6e-4 -8e-3 -7.1e-4 -1e-3 -6e-3 -1e-3 -0.0106-2e-3 -0.0148 6e-3 -4e-3 0.0123-8e-3 0.0187-0.0123l4e-3 8e-3c3e-3 0.01 1e-3 0.0194-0.0127 0.0194" fill="#eeae8b"/>
    <path d="m133.17 159.5c-1e-3 -0.0173 2e-3 -0.0233 6e-3 -0.0233s9e-3 5e-3 0.0123 0.0109c-6e-3 4e-3 -0.0123 8e-3 -0.0187 0.0123" fill="#eea376"/>
    <path d="m130.69 160.13c-0.17356-0.0459-0.44379-0.0681-0.62971-0.0681-0.055 0-0.10265 2e-3 -0.13828 6e-3 0.14675-0.0282 0.28222-0.0836 0.40393-0.1651 0.0871 0.0631 0.21237 0.14676 0.36406 0.22719" fill="#eeae8b"/>
    <path d="m130.8 160.16c-0.0282-0.0141-0.0649-0.0265-0.10725-0.0378-0.15169-0.0804-0.27693-0.16404-0.36406-0.22719-0.12171 0.0815-0.25718 0.13688-0.40393 0.1651-7e-3 7.1e-4 -0.0134 1e-3 -0.0194 2e-3 -6e-3 -0.0145-0.012-0.0243-0.0169-0.0307 4e-3 -7.1e-4 8e-3 -2e-3 0.0127-4e-3 0.4071-0.18697-0.47132-2.577-0.89535-4.1367-0.43145-1.5854-0.75495-2.7541-0.88371-2.9228-0.12277-0.16087 0.11148-0.28363 0.32067-0.33126 0.0642-0.0145 0.13088-0.0236 0.19191-0.0236 0.13794 0 0.24871 0.0466 0.24518 0.18168-7e-3 0.26493 0.3355 1.5773 0.77223 3.187 0.41487 1.5289 0.81492 3.7698 1.1501 4.1109 9e-3 0.01 0.0155 0.0145 0.0198 0.0166-6e-3 2e-3 -0.0152 0.0134-0.0219 0.0501m0.0265-0.0483c-1e-3 0-2e-3 -3.6e-4 -5e-3 -2e-3 7.1e-4 -3.5e-4 2e-3 -3.5e-4 3e-3 -3.5e-4s2e-3 3.5e-4 3e-3 1e-3c3.5e-4 7e-4 3.5e-4 1e-3 -7e-4 1e-3m-0.94192-0.0794c-7e-3 0-0.0106-3e-3 -0.012-6e-3 -1e-3 -3e-3 -7.1e-4 -6e-3 2e-3 -6e-3 3e-3 0 7e-3 3e-3 0.0138 0.0109-1e-3 0-3e-3 3.5e-4 -4e-3 3.5e-4" fill="#eea376"/>
    <path d="m128.31 159.48s-2e-3 -2e-3 -7e-3 -8e-3c4e-3 5e-3 7e-3 8e-3 7e-3 8e-3m-7e-3 -8e-3c-3.5e-4 -3.6e-4 -7e-4 -1e-3 -1e-3 -1e-3 3.5e-4 3.5e-4 7.1e-4 1e-3 1e-3 1e-3m-1e-3 -1e-3s-3.5e-4 0-3.5e-4 -3.6e-4c0 3.6e-4 3.5e-4 3.6e-4 3.5e-4 3.6e-4m-3.5e-4 -3.6e-4c-3.5e-4 -3.5e-4 -7.1e-4 -1e-3 -1e-3 -1e-3 7.1e-4 3.6e-4 1e-3 1e-3 1e-3 1e-3m-1e-3 -1e-3v-3.5e-4 3.5e-4m0-3.5e-4c-4e-3 -5e-3 -0.01-0.012-0.0169-0.0208 1e-3 2e-3 0.01 0.012 0.0169 0.0208m-0.0169-0.0208h-3.5e-4 3.5e-4m-3.5e-4 0v-3.6e-4 3.6e-4" fill="#eea376"/>
    <path d="m128.02 159.23c-0.21449-0.17463-0.4632-0.3616-0.56903-0.39511 0.0318 2e-3 0.0624 4e-3 0.0924 4e-3 0.0677 0 0.13052-6e-3 0.18767-0.018 0.067 0.13512 0.16651 0.27482 0.28893 0.40958" fill="#eeae8b"/>
    <path d="m128.28 159.45c-0.067-0.0589-0.1584-0.13652-0.25717-0.2166-0.12242-0.13476-0.2219-0.27446-0.28893-0.40958-0.0572 0.012-0.11994 0.018-0.18768 0.018-0.03 0-0.0607-1e-3 -0.0924-4e-3 -8e-3 -2e-3 -0.0155-4e-3 -0.0222-5e-3 -0.10301-0.0116-0.21554-0.0395-0.33055-0.0755-8e-3 -0.0212-0.0162-0.0346-0.0226-0.043 0.01 4e-3 0.0236 7e-3 0.0444 7e-3 7e-3 0 0.0145-3.6e-4 0.0229-1e-3 0.44979-0.0416-1.2711-5.7164-1.3367-5.8738-0.0794-0.1905 0.0236-0.23037 0.34325-0.26882 0.0716-9e-3 0.13864-0.0169 0.19755-0.0169 0.11713 0 0.20215 0.0325 0.2286 0.16016 9e-3 0.0455 1.0252 5.8981 1.7014 6.7289m-1.2016-0.73519c-2e-3 -7e-4 -4e-3 -1e-3 -6e-3 -2e-3 -9e-3 -4e-3 -0.0106-9e-3 -8e-3 -9e-3 2e-3 0 7e-3 3e-3 0.0134 0.0113" fill="#eea376"/>
  </g>
</svg>
