<?xml version="1.0" encoding="UTF-8"?>
<svg width="83.569mm" height="200.38mm" version="1.1" viewBox="0 0 83.569 200.38" xmlns="http://www.w3.org/2000/svg">
  <g transform="translate(-59.256 -38.955)">
    <path d="m142.61 146.04-4e-3 -6e-3c-0.43321-0.69109-0.88089-1.6665-1.3138-2.6102-0.4512-0.9832-0.877-1.9121-1.2855-2.5333-1.1899-1.8115-2.4042-2.6088-3.4488-3.2135-0.64594-0.37429-1.1289-0.94226-1.3543-1.5773-0.70026-2.9619-0.95603-6.2304-1.203-9.7794-0.15981-2.2976-0.32526-4.6732-0.60995-6.8234-0.33514-2.5262-0.94333-3.956-1.5314-5.3389-0.66358-1.5607-1.2905-3.0349-1.33-5.9588-0.0201-1.4979-0.0617-4.6316-0.0716-6.1337-0.0152-2.1509-0.20779-3.708-0.58173-5.9993-0.35137-2.1519-0.80681-5.6459-0.81069-5.6459-0.11006-0.8636-0.0413-1.8115 0.0321-2.8152 0.10125-1.3875 0.20602-2.8222-0.19403-4.0629-0.80433-2.4941-2.1936-4.5399-3.9123-5.7598-2.1004-1.4912-4.9777-2.225-6.5059-2.5294-0.50694-0.1009-1.003-0.28116-1.4746-0.53481-2.787-1.5-7.432-3.2819-8.8396-3.7881-0.46814-0.16828-0.78247-0.62971-0.78247-1.1479v-5.1185l-1.2495 0.10372c-1.6701 0.1397-3.3969 0.28399-5.0835 0.37853-1.7096-0.09455-3.4368-0.23883-5.1072-0.37853l-1.2488-0.10372 3.53e-4 5.1185c0 0.51823-0.3145 0.97966-0.78274 1.1479-1.4074 0.50624-6.0525 2.2881-8.8394 3.7881-0.47184 0.25365-0.96806 0.43392-1.4748 0.53481-1.5281 0.3048-4.4052 1.0382-6.5059 2.5294-1.7184 1.2199-3.1079 3.2653-3.9123 5.7598-0.39991 1.2411-0.29531 2.6758-0.19403 4.0633 0.0732 1.0037 0.14224 1.9512 0.04163 2.7746-0.01076 0.03175-0.46852 3.5317-0.82021 5.6861-0.37398 2.2913-0.56638 3.8485-0.58152 5.9993-0.0099 1.5021-0.05168 4.6358-0.07179 6.1337-0.03944 2.9238-0.66629 4.3981-1.33 5.9588-0.58815 1.3829-1.1963 2.8127-1.5313 5.3389-0.28512 2.1505-0.45046 4.5265-0.6102 6.8245-0.24708 3.5486-0.50258 6.8167-1.1968 9.7571-0.23149 0.65652-0.71462 1.2241-1.3601 1.5984-1.0448 0.60467-2.259 1.4019-3.4494 3.2135-0.4079 0.62124-0.83385 1.5498-1.2849 2.5326-0.4327 0.94403-0.88043 1.9198-1.3177 2.6173-0.23234 0.40252-0.27933 0.7052-0.14359 0.92357 0.12857 0.20814 0.39039 0.29598 0.79898 0.27164 1.2672-0.079 2.0756-1.5032 2.3413-1.971l0.0482-0.0843c0.36187-0.62724 0.61322-1.0054 0.78382-1.2333-0.0941 0.43674-0.2891 1.2245-0.666 2.6127l-0.0768 0.28399c-0.5847 2.2324-0.87533 3.9723-0.91502 5.4769-0.0282 1.082 0.33748 1.8295 1.0326 2.1163 0.26485 0.43109 0.61008 0.68509 1.0269 0.7567 0.6634 0.11148 1.3124-0.28433 1.5856-0.4826 0.30925 0.20744 0.71067 0.24518 1.1504 0.10125 0.59669-0.19508 1.2112-0.7112 1.441-1.1754 0.0962 0.0198 0.20849 0.0226 0.33514 0.01 0.57161-0.0646 1.3754-0.49742 1.883-1.319 0.66947-1.0834 1.0119-2.2504 1.3432-3.3793 0.09469-0.32209 0.18786-0.63959 0.28677-0.94721 0.10721-0.33373 0.2267-0.69074 0.35182-1.065 0.72983-2.1802 1.6377-4.8941 1.5075-7.003-0.04272-0.69003-0.01475-1.3677 0.08308-2.0179l0.01129 3e-3 0.03034-0.22649 0.01362-0.0804 0.02621-0.1404c0.02106-0.11042 0.04202-0.22084 0.06971-0.33197 0.77611-3.2307 1.9166-5.8744 3.0196-8.8187 1.4817-3.9564 2.8812-7.6934 3.0581-11.128 0.01489-0.28963 0.02716-0.59478 0.04011-0.92075 0.09303-2.3079 0.23315-5.7958 1.7429-12.591 0.62054-2.7944 0.40322-5.038 0.50507-5.9496 0.02452-0.21943 0.0616-0.09137 0.0974 0.03634 0.02745 0.09843 0.05433 0.19685 0.07415 0.13758 0.07126 0.11571 0.13614 0.21872 0.19526 0.31256 0.20204 0.32068 0.31228 0.15416 0.37236-0.0127 0.06794-0.18874 0.07193-0.37782 0.07193 0.14041 0 1.6785 1.017 5.2684 1.8863 7.8779 0.60755 1.8235 1.1814 3.5458 1.2258 4.3099 0.09507 1.6334 0.14856 3.6149 0.19593 6.404 0.03062 1.8013 0.05955 2.2991 0.09663 3.4939 0.08668 2.8021-0.38848 5.0546-0.89147 7.4394-0.46976 2.2282-0.95568 4.5321-1.1206 7.6175-0.61119 4.0665-1.8946 14.658-0.61158 25.138 0.37345 6.6414 1.8102 11.671 2.9647 15.713 0.81001 2.8356 1.5095 5.2839 1.6824 7.6253 0.08103 1.0986 0.06657 2.0828-0.04092 2.7718-0.27852 1.7872-0.78024 6.8675-0.81788 8.5778-0.1203 5.4395 0.59877 10.268 1.5095 14.887 0.25756 1.3066 0.5238 2.6572 0.79252 4.1549 0.04685 0.26113 0.20602 0.83757 0.42623 1.6363 0.75519 2.7375 2.1589 7.8245 1.9922 10.708-0.33874 0.93913-1.4067 2.7182-2.44 4.4386-0.86625 1.4421-1.6841 2.8043-2.0233 3.5927-0.38185 0.88731-0.4287 1.6496-0.13903 2.2645 0.33404 0.70872 1.0038 0.97262 1.1608 1.0265 0.57175 0.37083 1.2076 0.4819 2.4564 0.70073 0.16164 0.0285 0.32286 0.0663 0.4899 0.10542 0.54899 0.12844 1.1689 0.2734 2.0636 0.17074 0.9603 0.36862 1.9527 0.43009 2.9496 0.18204 0.23036 0 0.4572 0.0219 0.70238 0.047 0.46708 0.0469 0.95003 0.0948 1.4594-0.0156 1.1426-0.24626 1.6563-0.79265 1.717-1.826 0.0938-1.592-0.37112-3.6255-0.82056-5.5922-0.31256-1.3659-0.60748-2.6567-0.6798-3.6657-0.03986-0.56264 0.0028-1.2026 0.03739-1.7169 0.02152-0.32427 0.03881-0.58004 0.02963-0.74016-0.06033-1.0348-0.1457-2.0285-0.22825-2.9898-0.15311-1.7804-0.31115-3.6213-0.31115-5.7697 0-2.0147 0.05962-3.6449 0.18768-5.13 0.06914-0.80507 0.1651-1.7982 0.27093-2.8932 0.35736-3.6942 0.84632-9.9335 0.75741-12.623-0.10689-3.2202-0.35419-5.9443-0.75636-8.3273-0.31044-1.8422-0.38523-3.762-0.22225-5.7062 0.15769-1.8711 0.19473-3.8287 0.21661-4.9985 0.01023-0.54892 0.01834-0.98213 0.03422-1.1151 0.96625-8.2585 1.0015-18.354 1.0322-27.261 9e-3 -2.5072 0.0169-2.9859 0.0469-5.1446h1.517c0.03 2.1586 0.0381 2.6374 0.0469 5.1446 0.0307 8.9066 0.0656 19.002 1.0322 27.26 0.0155 0.13335 0.0236 0.56585 0.0339 1.113 0.0222 1.1702 0.0589 3.1288 0.21625 5.001 0.16334 1.9445 0.0889 3.8643-0.2219 5.7062-0.40181 2.383-0.64946 5.1072-0.75635 8.3273-0.0889 2.6889 0.40005 8.9274 0.75741 12.621 0.10583 1.0958 0.20179 2.0895 0.27129 2.895 0.1277 1.4851 0.18732 3.1153 0.18732 5.13 0 2.1483-0.15804 3.9893-0.31079 5.7697-0.0829 0.96132-0.16828 1.955-0.22825 2.9898-0.01 0.16012 8e-3 0.41589 0.0296 0.74044 0.0342 0.51443 0.0773 1.154 0.037 1.717-0.0723 1.0093-0.36724 2.2998-0.67945 3.666-0.44979 1.9665-0.91476 3.9995-0.82092 5.5915 0.061 1.0334 0.57433 1.5798 1.717 1.826 0.51012 0.11038 0.99237 0.0624 1.4594 0.0156 0.24518-0.0251 0.46496-0.0477 0.70238-0.047 0.4004 0.0995 0.79939 0.14924 1.1959 0.14924 0.59232 0 1.179-0.11038 1.754-0.33128 0.89324 0.10266 1.5141-0.0423 2.0634-0.17074 0.16722-0.0391 0.32844-0.0769 0.49001-0.10542 1.2488-0.21883 1.8842-0.3299 2.456-0.70073 0.15734-0.0539 0.82691-0.31778 1.161-1.0265 0.28963-0.61488 0.24271-1.3772-0.13899-2.2645-0.33902-0.78839-1.1575-2.1508-2.0235-3.5938-1.0329-1.7201-2.1008-3.4988-2.4398-4.4376-0.16651-2.8833 1.2372-7.9706 1.9925-10.708 0.22013-0.7983 0.37924-1.3752 0.42616-1.6359 0.26846-1.4982 0.53516-2.8487 0.79269-4.1558 0.91052-4.6189 1.6298-9.4473 1.5092-14.886-0.0374-1.7096-0.53904-6.7899-0.81774-8.5778-0.10724-0.68968-0.12206-1.6743-0.0409-2.7718 0.17322-2.3414 0.87242-4.7897 1.6824-7.6253 1.1546-4.0414 2.5915-9.0713 2.9637-15.699 1.2841-10.493 7e-4 -21.084-0.60855-25.131-0.16686-3.1052-0.65264-5.4088-1.1225-7.6369-0.50306-2.3851-0.97825-4.6376-0.89111-7.4397 0.037-1.1938 0.0656-1.6898 0.096-3.4893 0.0476-2.7908 0.10124-4.7745 0.19614-6.4086 0.0444-0.76377 0.61807-2.486 1.2259-4.3095 0.86925-2.6095 2.1184-6.0896 2.1184-7.7678 0-0.51788-0.0878-0.31856-0.10619-0.11924-0.0166 0.17639 0.0219 0.35278 0.22437 0.0314 0.0565-0.08996 0.19932-0.50447 0.27552-0.62653 0.0198 0.06103 0.0483-7.06e-4 0.0783-0.06279 0.0402-0.08326 0.0822-0.16722 0.10689 0.05292 0.10195 0.91158-0.11536 3.1552 0.50517 5.9492 1.5099 6.7959 1.65 10.283 1.7427 12.591 0.0134 0.32596 0.0254 0.63076 0.0402 0.92039 0.17709 3.4346 1.5766 7.1716 3.0582 11.128 1.1031 2.9443 2.2433 5.5876 3.0198 8.8191 0.0268 0.10689 0.0473 0.21414 0.0677 0.32103l0.0279 0.15028 0.0138 0.0804 0.0346 0.21943 6e-3 -2e-3c0.0988 0.65229 0.127 1.3321 0.084 2.0239-0.13018 2.1089 0.77787 4.8228 1.5074 7.003 0.12523 0.37429 0.24482 0.73131 0.35207 1.065 0.0988 0.30763 0.19191 0.62513 0.28645 0.94756 0.33126 1.1285 0.67381 2.2955 1.3434 3.3789 0.50765 0.82162 1.3116 1.2545 1.8831 1.319 0.12629 0.0141 0.23883 0.0106 0.33514-0.01 0.22966 0.46425 0.8442 0.98037 1.4411 1.1754 0.43956 0.14358 0.84066 0.10619 1.15-0.10124 0.2734 0.19826 0.92146 0.59443 1.5857 0.4826 0.41663-0.0716 0.76164-0.32562 1.0266-0.75671 0.69497-0.28681 1.0612-1.0344 1.0329-2.1167-0.0399-1.5039-0.33055-3.2441-0.9151-5.4765l-0.0769-0.28434c-0.37677-1.3868-0.5715-2.1742-0.66569-2.6109 0.17215 0.23036 0.42686 0.61348 0.79481 1.2513l0.037 0.0649c0.26564 0.46779 1.0738 1.892 2.341 1.971 0.40957 0.0243 0.67063-0.0635 0.79939-0.27164 0.13547-0.21837 0.0885-0.52105-0.14358-0.92357" fill="#ffc697"/>
    <path d="m97.381 239.22c-0.19191-0.0187-0.37677-0.0343-0.56162-0.035 0.18556 6.9e-4 0.36865 0.0152 0.56162 0.0339v1e-3m-0.59937-0.028c0.0021-6.9e-4 0.0042-9.7e-4 0.0063-1e-3 -0.0021 4.1e-4 -0.0042 6.9e-4 -0.0063 1e-3m0.01199-3e-3c0.0056-1e-3 0.01094-3e-3 0.01623-4e-3 -0.0053 1e-3 -0.01058 3e-3 -0.01623 4e-3" fill="#f1b89a"/>
    <path d="m96.421 239.26c-0.05362-0.92742 0.20144-1.9238 0.29951-2.5687 0.05151-0.3372 0.26211-0.50436 0.47343-0.50436 0.2159 0 0.43251 0.1746 0.48013 0.51993 0.07585 0.54157-0.33267 0.98213-0.29316 2.5065-0.19297-0.0187-0.37606-0.0332-0.56162-0.0339h-0.0095c-0.0053 1e-3 -0.01058 3e-3 -0.01623 4e-3 -0.0018 2.8e-4 -0.0039 6.9e-4 -0.0056 1e-3 -0.0021 4.1e-4 -0.0042 6.9e-4 -0.0063 1e-3 -0.1203 0.0293-0.2406 0.0533-0.36054 0.0734" fill="#f0a77a"/>
    <path d="m93.869 239.01c-3e-3 -1e-3 -0.0061-2e-3 -0.0091-4e-3 3e-3 1e-3 0.0061 2e-3 0.0091 4e-3" fill="#f1b89a"/>
    <path d="m94.431 239.18c-0.18824-0.048-0.37581-0.10405-0.56183-0.17488-3e-3 -1e-3 -0.0061-2e-3 -0.0091-4e-3 -0.11726 0.0134-0.22916 0.0222-0.33736 0.0278 0.04988-0.65044 0.14566-1.3331 0.48412-1.8824 0.15628-0.25439 0.33599-0.39867 0.44785-0.39867 0.10075 0 0.14661 0.11713 0.07041 0.37606-0.22666 0.77019-0.13808 1.2881-0.09409 2.0556" fill="#f0a77a"/>
    <path d="m83.019 98.767c-0.08943-0.09948-0.17293-0.20214-0.24956-0.30798-0.01598-0.02152-0.03171-0.04304-0.04713-0.06491 0.01489 0.0064 0.02879 0.0092 0.04202 0.0092 0.07786 0 0.13025-0.09772 0.16538-0.19509 0.03514-0.09772 0.0532-0.19509 0.06241-0.19509 0.0086 0 0.0095 0.08502 0.0095 0.33549 0 0.12876 0.0059 0.26846 0.01736 0.41839" fill="#eeae8b"/>
    <path d="m90.164 100.84c-0.87683 0-1.7865-0.0469-2.6941-0.16193-0.15184-0.0205-0.29503-0.0384-0.45364-0.0653l-0.4378-0.0762c-0.30413-0.0593-0.60138-0.13017-0.892-0.21096-0.58113-0.1711-1.1425-0.40711-1.6462-0.71896-0.38283-0.23777-0.733-0.5207-1.021-0.83996-0.01143-0.14993-0.01736-0.28963-0.01736-0.41839 0-0.25047-9.53e-4 -0.33549-0.0095-0.33549-0.0092 0-0.02727 0.09737-0.06241 0.19509-0.03514 0.09737-0.08752 0.19509-0.16538 0.19509-0.01323 0-0.02713-0.0028-0.04202-0.0092-0.30124-0.42333-0.50119-0.88794-0.63017-1.3021-0.27425-0.90311-0.30663-1.6563-0.36273-2.1661-0.13585-0.74189-0.02381-1.2061 0.12252-1.2061 0.06904 0 0.14566 0.10301 0.20754 0.32914 0.07165 0.26141 0.07677 0.29633 0.16785 0.81068 0.09398 0.51047 0.17184 1.2467 0.43614 2.0391 0.13988 0.40605 0.32741 0.80222 0.61584 1.173 0.28236 0.37112 0.66781 0.69039 1.1125 0.95215 0.44595 0.26211 0.95596 0.45896 1.4934 0.60854 0.27051 0.07479 0.54391 0.14005 0.81802 0.19438l0.43395 0.07585c0.1324 0.02293 0.28275 0.04233 0.42386 0.06103 0.87559 0.11183 1.7635 0.15769 2.619 0.15769 0.26723 0 0.53111-4e-3 0.79061-0.0127 0.54543-0.0183 1.0727-0.0427 1.57-0.09 0.49805-0.04339 0.96435-0.11394 1.3938-0.17956 0.85838-0.13617 1.5541-0.33196 2.0225-0.50412 0.23742-0.08643 0.40887-0.16757 0.52881-0.2226 0.02328-0.01164 0.06174-0.01799 0.10513-0.01799 0.18662 0 0.46884 0.11218 0.09807 0.36054-0.12241 0.07973-0.3108 0.18944-0.55033 0.30445-0.47942 0.2427-1.2023 0.49212-2.0861 0.69144-0.4414 0.10372-0.92632 0.17604-1.4388 0.24095-0.51319 0.0614-1.0557 0.1136-1.6184 0.13476-0.27298 9e-3 -0.55069 0.0138-0.83153 0.0138" fill="#eea376"/>
    <path d="m94.641 185.15c-1.4143 0-1.9877-0.65829-3.117-1.639-0.25368-0.22084-0.22902-0.33267-0.06325-0.33267 0.14182 0 0.38668 0.0819 0.64879 0.2473 0.73353 0.46284 1.6186 0.64558 2.3943 0.64558 0.74073 0 1.3814-0.16651 1.6953-0.41416 0.12559-0.0984 0.21167-0.14675 0.25259-0.14675 0.04904 0 0.03281 0.0695-0.05856 0.20708-0.36371 0.54328-1.035 1.3769-1.7522 1.4326" fill="#f2ac7e"/>
    <path d="m119.55 98.105c0.0564-0.1404 0.11782-0.29351 0.1591-0.35983 6e-3 0.01729 0.012 0.02469 0.0187 0.02505-0.0533 0.11183-0.11254 0.22401-0.1778 0.33479" fill="#eeae8b"/>
    <path d="m111.92 100.84c-0.28081 0-0.55845-5e-3 -0.8315-0.0138-0.56268-0.0212-1.1052-0.0734-1.6182-0.13476-0.51294-0.0649-0.99766-0.13723-1.439-0.24095-0.88406-0.19932-1.6066-0.44873-2.0863-0.69144-0.23918-0.115-0.42757-0.22472-0.54998-0.30445-0.28434-0.17992-0.0127-0.35419 0.14358-0.35419 0.0229 0 0.0437 0.0039 0.0596 0.01164 0.11994 0.05503 0.29139 0.13617 0.52881 0.2226 0.46849 0.17216 1.1642 0.36795 2.0225 0.50412 0.42933 0.06562 0.8957 0.13617 1.3935 0.17957 0.49742 0.0473 1.0248 0.0716 1.5702 0.09 0.2593 8e-3 0.52353 0.0127 0.79058 0.0127 0.85549 0 1.7431-0.0459 2.6187-0.1577 0.14146-0.0187 0.29175-0.0381 0.42404-0.06103l0.43392-0.07585c0.2741-0.05433 0.54751-0.11959 0.81809-0.19438 0.53728-0.14958 1.0474-0.34643 1.4933-0.60854 0.44485-0.26176 0.83008-0.58102 1.1127-0.95215 0.28857-0.37077 0.47589-0.76694 0.61595-1.173 0.26423-0.79234 0.34184-1.5286 0.43603-2.0391 0.091-0.51435 3e-3 -0.1965 0.16792-0.81068 0.0755-0.28187 0.16193-0.36548 0.23777-0.36548 0.11007 0 0.19791 0.17568 0.19791 0.17568s-0.0639 0.55457-0.10583 1.0668c-0.0561 0.50976-0.0885 1.2629-0.36266 2.1661-0.0674 0.21661-0.15416 0.44662-0.26493 0.67769-7e-3 -3.52e-4 -0.0131-0.0078-0.0187-0.02505-0.0413 0.06632-0.10266 0.21943-0.15911 0.35983-0.0706 0.1203-0.14887 0.23918-0.23459 0.35454-0.32315 0.44697-0.76871 0.83608-1.2707 1.1479-0.50341 0.31186-1.0647 0.54786-1.6461 0.71896-0.29069 0.0808-0.58773 0.15169-0.89182 0.21096l-0.4378 0.0762c-0.15875 0.0268-0.30198 0.0448-0.45367 0.0653-0.9077 0.11501-1.8175 0.16193-2.6942 0.16193" fill="#eea376"/>
    <path d="m107.44 185.15c-0.71684-0.0557-1.3882-0.88935-1.7519-1.4326-0.0917-0.13759-0.1076-0.20708-0.0586-0.20708 0.0409 0 0.127 0.0483 0.25223 0.14675 0.31397 0.24765 0.95497 0.41416 1.6954 0.41416 0.77576 0 1.6609-0.18274 2.3943-0.64558 0.26211-0.16545 0.50729-0.2473 0.64875-0.2473 0.16581 0 0.1905 0.11183-0.0632 0.33267-1.1292 0.98072-1.7025 1.639-3.1171 1.639" fill="#f2ac7e"/>
    <path d="m101.04 123.71c-0.55492 0-1.0044-0.26811-1.0044-0.59831 0-0.33055 0.44944-0.59866 1.0044-0.59866 0.55456 0 1.0044 0.26811 1.0044 0.59866 0 0.3302-0.44979 0.59831-1.0044 0.59831" fill="#eea376"/>
    <path d="m64.626 143.44c-0.0489 0-0.0943-0.0307-0.11077-0.079-0.0199-0.0579 8e-3 -0.12171 0.0645-0.1457 1.1635-0.50094 2.8195-1.3621 3.7648-3.0505 0.02096-0.0377 0.05997-0.0596 0.10199-0.0596 0.0109 0 0.02205 1e-3 0.03323 5e-3 0.05235 0.0152 0.08707 0.0646 0.08379 0.11924-0.0026 0.0466-0.0816 1.1451-1.306 2.0246-1.0893 0.78246-2.5407 1.1666-2.6019 1.1825l-0.0296 4e-3" fill="#eea376"/>
    <path d="m137.46 143.44-0.0296-4e-3c-0.0614-0.0159-1.5127-0.40005-2.6021-1.1825-1.2245-0.87948-1.3035-1.978-1.306-2.0246-4e-3 -0.0547 0.0314-0.10407 0.084-0.11924 0.0109-3e-3 0.0219-5e-3 0.0328-5e-3 0.042 0 0.0811 0.0219 0.10231 0.0596 0.94544 1.6884 2.6014 2.5495 3.7648 3.0505 0.0561 0.024 0.0843 0.0878 0.0646 0.14569-0.0166 0.0483-0.0617 0.079-0.11077 0.079" fill="#eea376"/>
    <path d="m108.25 55.933c-0.0818 1.8443 0.8128 3.767 1.9858 3.8044 0.66781 0.02152 1.7462-1.7759 2.0521-3.6357 0.29739-1.8087-0.0607-3.7924-1.7664-3.4336-0.99589 0.20955-2.19 1.4206-2.2715 3.265" fill="#ffc697"/>
    <path d="m108.4 55.882c-0.0575 1.2883 0.63359 2.6342 1.5335 2.6638 0.51224 0.01658 1.3346-1.2361 1.5642-2.5351 0.22331-1.2626-0.0568-2.6494-1.3642-2.4035-0.76341 0.14358-1.676 0.98637-1.7336 2.2747" fill="#f2ac7f"/>
    <path d="m93.787 55.933c0.0816 1.8443-0.81291 3.767-1.9859 3.8044-0.66767 0.02152-1.7462-1.7759-2.0522-3.6357-0.29736-1.8087 0.06078-3.7924 1.7663-3.4336 0.99603 0.20955 2.1901 1.4206 2.2718 3.265" fill="#ffc697"/>
    <path d="m93.632 55.882c0.05761 1.2883-0.63362 2.6342-1.5336 2.6638-0.5122 0.01658-1.3345-1.2361-1.5641-2.5351-0.22324-1.2626 0.05694-2.6494 1.3641-2.4035 0.76345 0.14358 1.676 0.98637 1.7336 2.2747" fill="#f2ac7f"/>
    <path d="m101.28 69.142c-0.7119 0-1.6309-0.03845-2.0754-0.1464-0.83644-0.20355-2.7944-1.8228-4.5089-3.3884v-0.68262c1.723 1.6492 3.8178 3.0127 4.6232 3.2089 0.33126 0.08079 1.1589 0.13088 1.9876 0.13088 0.80574 0 1.6126-0.04727 1.9667-0.16087 0.72813-0.23354 2.5605-1.5596 4.1116-3.151v0.68968c-0.048 0.04692-0.096 0.09419-0.14323 0.13935-1.4168 1.3561-3.024 2.9192-3.8213 3.1746-0.50448 0.16192-1.5575 0.18591-2.1403 0.18591" fill="#eea376"/>
    <path d="m101.39 39.553-0.0459-0.0081-0.1524 0.0011 5e-3 0.21414-0.0508-0.21414-0.12841-0.0011h-0.00436l-0.15275 0.0011 5e-3 0.21414-0.0508-0.21414-0.12771-0.0011-0.0441 6e-3c-5.7746 0.14111-9.3618 3.9892-9.3615 10.052 0.0029 0.06597 0.30247 6.682 0.8599 11.429 0.32618 2.7757 5.7602 6.7546 7.1811 7.1004 0.33126 0.08079 1.1589 0.13088 1.9876 0.13088 0.80574 0 1.6125-0.04727 1.9667-0.16087 1.312-0.42086 6.2121-4.3914 6.5871-7.0654 0.67804-4.8359 0.85901-11.372 0.86078-11.443 0-6.1493-3.4996-9.9035-9.3348-10.041" fill="#ffc697"/>
    <path d="m93.814 53.056c0.52504-0.21625 1.0269-0.36618 1.4365-0.41099 1.325-0.14323 2.981 0.44168 3.5232 0.53763 0.48048 0.08502 0.64594-0.94791 0.15804-1.1003-1.161-0.36266-2.6342-0.51047-3.8234-0.33196-0.58685 0.08819-1.6517 0.92287-1.698 1.0382-0.08943 0.22366 0.1487 0.37888 0.40365 0.2674" fill="#49250d"/>
    <path d="m108.19 53.056c-0.52528-0.21625-1.0273-0.36618-1.4369-0.41099-1.3247-0.14323-2.981 0.44168-3.5232 0.53763-0.48048 0.08502-0.64594-0.94791-0.15769-1.1003 1.161-0.36266 2.6338-0.51047 3.8234-0.33196 0.58667 0.08819 1.6517 0.92287 1.6979 1.0382 0.0892 0.22366-0.14887 0.37888-0.40358 0.2674" fill="#49250d"/>
    <path d="m104.02 62.793-0.0695 0.0067c-0.0346 0.0039-0.0656 0.0046-0.1076 0.0056l-0.0621 0.0021c-0.14781 0.0056-0.36865-0.0018-0.65546-0.02434-0.0928-0.0056-0.19014-0.0134-0.29245-0.02152-0.20884-0.01693-0.44591-0.03598-0.70979-0.04092h-0.0247c-0.20426 0-0.42298 0.02787-0.5722 0.05186-0.18557 0.02822-0.35314 0.05151-0.52811 0.05151h-2e-3c-0.17569 0-0.30092-0.02328-0.508-0.06668-0.18239-0.03775-0.40852-0.05327-0.62336-0.03986l-0.98249 0.06562c-0.28575 0.01552-0.51506 0.0071-0.65158 0.0014l-0.23848-0.01058c-0.11465-0.0028-0.21872 0.05362-0.26176 0.14605-0.02752 0.05786-0.02716 0.12206 7.05e-4 0.17992 0.02752 0.05821 0.07937 0.10301 0.14605 0.127 0.0046 0.0018 0.1143 0.04057 0.30127 0.06244 0.17568 0.01976 0.4184 0.01835 0.7426-0.0039l0.97543-0.08431c0.19332-0.01305 0.33302-0.0078 0.48083 0.01764 0.17287 0.03422 0.42193 0.07126 0.62372 0.06244 0.18344-7.06e-4 0.3877-0.01552 0.60783-0.0448 0.19862-0.0254 0.34502-0.03845 0.50659-0.03034 0.22013 0.0099 0.44238 0.03316 0.65723 0.05574 0.10407 0.01094 0.20461 0.02152 0.29986 0.02999 0.19614 0.01693 0.38735 0.0254 0.55598 0.0254 0.0631 0 0.12311-0.0011 0.17885-0.0035 0.0942-0.0042 0.1831-0.01482 0.21943-0.02046l0.0684-0.0099c0.14782-0.02152 0.25153-0.14005 0.23566-0.27023-0.0166-0.13582-0.15523-0.23248-0.31115-0.22013" fill="#ce7d5d"/>
    <path d="m101.4 38.964-0.0607-0.0088-0.68403 0.0018-0.0215 0.0046c-5.8932 0.14358-9.5538 4.0707-9.5524 10.28 0.02551 0.641 0.12224 2.9228 0.28924 5.3562 0.0068 0.09666 0.08241 0.17392 0.17861 0.18274 0.09783 0.0095 0.18436-0.05362 0.20807-0.14746 0.0835-0.32773 0.10086-1.3233 0.11081-2.2306 2e-3 -0.19226 0.0034-0.33761 0.0063-0.39899 0.12128-2.7058 0.80218-4.5011 2.0817-5.4878 0.42608-0.32844 1.3596-0.51717 1.9297-0.48331 0.36371 0.02258 0.68721 0.07796 1.0643 0.14323 0.80751 0.13899 1.8126 0.31221 3.8978 0.31221 2.0419 0 3.2392-0.23495 4.1176-0.40746 0.44591-0.08749 0.83079-0.16298 1.2079-0.18239 0.51541-0.02928 1.2936 0.12206 1.7071 0.46002 0.46108 0.37712 1.8651 1.5251 2.1703 5.7337 5e-3 0.06138 0.0123 0.19544 0.0229 0.37394 0.0646 1.0908 0.13265 2.1392 0.19544 2.4232 0.0201 0.09031 0.10019 0.15381 0.19156 0.15381l0.0152-3.53e-4c0.0974-0.0074 0.17463-0.08537 0.18133-0.18274 0.19544-2.9161 0.25894-5.6275 0.25929-5.6589 0-6.2664-3.5574-10.092-9.5165-10.237" fill="#593014"/>
    <path d="m101.02 95.823c-0.0762 0-0.15276-0.13758-0.19439-0.4124-0.46954-3.121-0.0663-8.2973 0.139-10.466 0.0261-0.27764 0.0631-0.41663 0.0998-0.41663s0.073 0.139 0.0981 0.41663c0.51647 5.7305 0.26176 8.9814 0.0494 10.463-0.0395 0.27693-0.11571 0.41522-0.19191 0.41522" fill="#f2ac7e"/>
    <path d="m91.57 111.42c-0.04932 0-0.05263-0.14323 0.01101-0.42651 0.90717-4.0421 4.1369-7.2743 5.7463-8.0765 0.16898-0.0847 0.29034-0.12347 0.36089-0.12347 0.13723 0 0.08114 0.14816-0.19121 0.39652-3.2967 3.0053-5.0038 6.2928-5.6902 7.8638-0.10707 0.24483-0.19142 0.36618-0.23675 0.36618" fill="#f2ac7e"/>
    <path d="m110.37 111.52c-0.0547 0-0.14675-0.11959-0.25294-0.36265-0.70485-1.6101-2.4229-5.0232-5.4123-8.0419-0.25788-0.25999-0.30656-0.41416-0.17004-0.41416 0.0713 0 0.19262 0.0423 0.36125 0.133 1.5829 0.85302 4.579 4.0965 5.4868 8.2554 0.0621 0.2854 0.0476 0.43039-0.0127 0.43039" fill="#f2ac7e"/>
    <path d="m88.02 97.829c-0.71988 0-1.3035-0.41663-1.3035-0.93098s0.5836-0.93098 1.3035-0.93098 1.3035 0.41663 1.3035 0.93098-0.5836 0.93098-1.3035 0.93098" fill="#eea376"/>
    <path d="m114.33 97.829c-0.72002 0-1.3035-0.41663-1.3035-0.93098s0.58349-0.93098 1.3035-0.93098 1.3035 0.41663 1.3035 0.93098-0.5835 0.93098-1.3035 0.93098" fill="#eea376"/>
    <path d="m97.716 76.849c-1.3758 0-6.2285-0.84737-10.053-1.422-0.53827-0.08079-0.51209-0.29104 0.0077-0.29104 0.01281 0 0.02589 3.53e-4 0.03927 7.06e-4 2.2936 0.04445 7.8568 0.42827 9.9015 1.3183 0.64558 0.28116 0.60713 0.39441 0.10442 0.39405" fill="#f2ac7e"/>
    <path d="m104.46 76.84c-0.52246 0-0.58632-0.10971 0.0466-0.38523 2.0447-0.89006 7.608-1.2065 9.9018-1.2513 0.013-3.53e-4 0.0257-3.53e-4 0.0381-3.53e-4 0.5207 0 0.54751 0.21555 8e-3 0.29069-3.4336 0.48048-8.5266 1.3462-9.9949 1.3462" fill="#f2ac7e"/>
    <path d="m100.97 79.094c-0.36936-3.53e-4 -0.66781-0.28293-0.88724-0.6036-0.21414-0.31362-0.19015-0.46179 0.0116-0.46179 0.0945 0 0.2279 0.03246 0.39405 0.0956 0.21308 0.08079 0.42369 0.12912 0.62019 0.15628 0.55245 0.0762 0.77964 0.4131 0.29492 0.68827-0.15381 0.08749-0.29845 0.12524-0.43356 0.12524" fill="#f2ac7e"/>
    <path d="m100.85 119.64h-3.5e-4c-0.13018 0-0.19826-0.10336-0.23566-0.69003-0.28222-4.469-0.0363-10.758 0.0829-13.761 0.0257-0.64982 0.0487-0.6978 0.17922-0.6978h3.5e-4c0.13088 3.6e-4 0.15381 0.0476 0.1785 0.6985 0.31151 8.2352 0.1524 11.713 0.0296 13.756-0.036 0.59019-0.10407 0.69391-0.23459 0.69426" fill="#f2ac7e"/>
    <path d="m63.41 155.11c-0.0103 0-0.0341-0.0123-0.0592-0.0275 0.0201 0.01 0.0404 0.0187 0.061 0.0275h-2e-3m-0.55188-0.42122c-0.15283-0.14288-0.29504-0.28434-0.35554-0.33655 0.0562 0.0324 0.1152 0.0614 0.17666 0.0868 0.0561 0.0914 0.11577 0.17462 0.17888 0.24977" fill="#eeae8b"/>
    <path d="m63.412 155.11c-0.0207-9e-3 -0.0409-0.018-0.061-0.0275-0.0376-0.0229-0.078-0.0515-0.078-0.0515-0.10336-0.0593-0.26419-0.20144-0.41465-0.3422-0.0631-0.0751-0.12279-0.15839-0.17888-0.24976-0.0615-0.0254-0.12044-0.0543-0.17666-0.0868-0.0108-9e-3 -0.0189-0.0155-0.024-0.0187 0.38089-0.0751 0.67208-2.0863 1.2029-4.1469 0.32893-1.2764 0.56307-2.5929 0.77431-3.4205 0.0295-0.11607 0.0788-0.16404 0.1753-0.16404 0.0616 0 0.1422 0.0194 0.24899 0.0536 0.20355 0.0649 0.40502 0.0794 0.33831 0.26529-0.24542 0.68509-0.63415 2.1505-0.96393 3.4304-0.47872 1.8577-1.113 4.3021-0.84501 4.7403 7e-3 0.012 7e-3 0.0173 2e-3 0.0183" fill="#eea376"/>
    <path d="m62.471 154.34c-9e-3 0-0.0128-4e-3 -0.0138-0.01 5e-3 3e-3 0.0101 6e-3 0.0152 0.01h-1e-3" fill="#eeae8b"/>
    <path d="m62.472 154.34c-5e-3 -3e-3 -0.0102-6e-3 -0.0152-0.01-5.6e-4 -3e-3 -1.4e-4 -6e-3 8.2e-4 -0.01 3e-3 -0.01 0.0105-0.0194 0.0161-0.0194 6e-3 0 9e-3 0.01 5e-3 0.0381-2e-3 3.5e-4 -4e-3 7e-4 -6e-3 7e-4" fill="#eea376"/>
    <path d="m64.866 154.97c0.1797-0.09 0.32741-0.18733 0.42608-0.25894 0.11575 0.0776 0.24462 0.13159 0.38336 0.16122-0.0253-1e-3 -0.054-2e-3 -0.0849-2e-3 -0.2249 0-0.57284 0.0325-0.72457 0.0998" fill="#eeae8b"/>
    <path d="m64.853 154.98c-7e-3 -0.0367-0.0159-0.0476-0.0218-0.0501 4e-3 -2e-3 0.0103-7e-3 0.0197-0.0162 0.33528-0.34149 0.73533-2.5823 1.1503-4.1113 0.43667-1.6097 0.77939-2.9221 0.77209-3.187-4e-3 -0.13511 0.10721-0.18133 0.24543-0.18133 0.0611 0 0.12749 9e-3 0.19155 0.0233 0.20934 0.0476 0.44345 0.1704 0.32096 0.33126-0.12887 0.16863-0.45258 1.3374-0.88388 2.9228-0.42429 1.5596-1.3027 3.9497-0.89546 4.1367 5e-3 2e-3 9e-3 4e-3 0.0127 4e-3 -5e-3 6e-3 -0.0104 0.0162-0.0168 0.0307-0.0194-3e-3 -0.0441-5e-3 -0.0728-6e-3 -0.13874-0.0296-0.26761-0.0836-0.38336-0.16122-0.0987 0.0716-0.24638 0.16898-0.42608 0.25894-4e-3 2e-3 -9e-3 4e-3 -0.0125 6e-3m-0.0265-0.0483c-1e-3 0-1e-3 -3.6e-4 -8.4e-4 -1e-3 4.2e-4 -7.1e-4 2e-3 -1e-3 3e-3 -1e-3 8.5e-4 0 2e-3 0 3e-3 3.5e-4 -2e-3 1e-3 -4e-3 2e-3 -5e-3 2e-3m0.94203-0.0794c-1e-3 0-3e-3 0-4e-3 -3.5e-4 6e-3 -8e-3 0.0109-0.0109 0.0137-0.0109 3e-3 0 4e-3 3e-3 2e-3 6e-3s-5e-3 6e-3 -0.012 6e-3" fill="#eea376"/>
    <path d="m67.343 154.3h1.4e-4 -1.4e-4m1.4e-4 0c0-3.5e-4 0-3.5e-4 1.4e-4 -3.5e-4 -1.4e-4 0-1.4e-4 0-1.4e-4 3.5e-4m1.4e-4 -3.5e-4h1.1e-4 -1.1e-4m1.1e-4 0v-3.5e-4 3.5e-4m0-3.5e-4c4.2e-4 -3.5e-4 1e-3 -1e-3 2e-3 -2e-3 -8.2e-4 1e-3 -2e-3 2e-3 -2e-3 2e-3m2e-3 -2e-3c1.4e-4 -3.5e-4 1.4e-4 -3.5e-4 2.8e-4 -3.5e-4 -1.4e-4 0-1.4e-4 0-2.8e-4 3.5e-4m2.8e-4 -3.5e-4c3e-3 -4e-3 0.01-0.012 0.0152-0.0187-8e-3 9e-3 -0.0127 0.0155-0.0152 0.0187" fill="#eeae8b"/>
    <path d="m67.361 154.28c1.4e-4 0 2.4e-4 -3.5e-4 3.9e-4 -3.5e-4 -1.5e-4 0-2.5e-4 3.5e-4 -3.9e-4 3.5e-4m3.9e-4 -3.5e-4c1.4e-4 -3.5e-4 2.8e-4 -3.5e-4 2.8e-4 -7.1e-4 0 3.6e-4 -1.4e-4 3.6e-4 -2.8e-4 7.1e-4m2.8e-4 -7.1e-4c8.4e-4 -7e-4 1e-3 -1e-3 2e-3 -3e-3 -7.1e-4 1e-3 -1e-3 2e-3 -2e-3 3e-3m2e-3 -3e-3c1.4e-4 0 4.2e-4 -3.5e-4 5.3e-4 -7e-4 -1.1e-4 3.5e-4 -3.9e-4 7e-4 -5.3e-4 7e-4m5.3e-4 -7e-4c4.2e-4 -3.5e-4 9.9e-4 -1e-3 1e-3 -1e-3 -5.3e-4 3.5e-4 -9.5e-4 1e-3 -1e-3 1e-3m1e-3 -1e-3c1.5e-4 -3.6e-4 2.9e-4 -3.6e-4 4.3e-4 -7.1e-4 -1.4e-4 3.5e-4 -2.8e-4 3.5e-4 -4.3e-4 7.1e-4m4.3e-4 -7.1e-4c5.6e-4 -7e-4 9.9e-4 -1e-3 1e-3 -2e-3 -3.8e-4 7.1e-4 -9.5e-4 1e-3 -1e-3 2e-3m1e-3 -2e-3h2.9e-4 -2.9e-4m2.9e-4 0c4.2e-4 -7e-4 8.4e-4 -1e-3 1e-3 -1e-3 -3.9e-4 3.5e-4 -6.7e-4 7.1e-4 -1e-3 1e-3m1e-3 -1e-3c1.4e-4 -3.5e-4 1.4e-4 -3.5e-4 2.8e-4 -3.5e-4 -1.4e-4 0-1.4e-4 0-2.8e-4 3.5e-4m2.8e-4 -3.5e-4c7.1e-4 -1e-3 9.5e-4 -1e-3 9.5e-4 -1e-3 -2.4e-4 3.5e-4 -6.7e-4 1e-3 -9.5e-4 1e-3" fill="#eea376"/>
    <path d="m67.446 154.2c0.19004-0.17886 0.34438-0.37359 0.43656-0.55986 0.05704 0.0116 0.11991 0.0176 0.18796 0.0176 0.0466 0 0.09564-3e-3 0.14718-8e-3 -0.11366 0.0116-0.52627 0.34079-0.7717 0.55034" fill="#eeae8b"/>
    <path d="m67.37 154.27c0.67663-0.83079 1.6921-6.683 1.7016-6.7289 0.02632-0.12771 0.11148-0.16016 0.22846-0.16016 0.05898 0 0.12598 8e-3 0.19748 0.0169 0.31972 0.0384 0.42277 0.0787 0.34354 0.26882-0.06558 0.15733-1.7868 5.8321-1.3368 5.8738 0.0083 7e-4 0.01598 1e-3 0.02286 1e-3 0.02081 0 0.03514-3e-3 0.04452-7e-3 -0.0065 8e-3 -0.01432 0.0219-0.02247 0.043-0.11518 0.036-0.22765 0.0639-0.33073 0.0755-0.05154 5e-3 -0.10058 8e-3 -0.14718 8e-3 -0.06805 0-0.13092-6e-3 -0.18796-0.0176-0.09218 0.18626-0.24652 0.381-0.43656 0.55985-0.028 0.024-0.0537 0.0462-0.0768 0.0663m1.2017-0.73518c0.0065-8e-3 0.01143-0.0113 0.01351-0.0113 0.0026 0 6.71e-4 5e-3 -0.0081 9e-3 -0.0015 1e-3 -0.0033 2e-3 -0.0054 2e-3" fill="#eea376"/>
    <path d="m138.67 155.11h-2e-3c0.0208-9e-3 0.0413-0.018 0.0614-0.0279-0.025 0.0152-0.049 0.0279-0.0596 0.0279m0.55104-0.42016c0.0635-0.0755 0.12347-0.15911 0.17956-0.25083 0.0617-0.0254 0.121-0.0547 0.17745-0.0871-0.0603 0.0519-0.20356 0.19438-0.35701 0.33796" fill="#eeae8b"/>
    <path d="m138.67 155.11c-5e-3 -1e-3 -5e-3 -6e-3 2e-3 -0.0183 0.26776-0.43815-0.36653-2.8826-0.8449-4.7403-0.32985-1.2799-0.71861-2.7453-0.96414-3.4304-0.0667-0.18591 0.13476-0.20038 0.33831-0.26529 0.10689-0.0342 0.18733-0.0536 0.24906-0.0536 0.0963 0 0.1457 0.048 0.17533 0.16404 0.21132 0.82762 0.44521 2.1442 0.77435 3.4205 0.53058 2.0606 0.82197 4.0718 1.203 4.1469-5e-3 3e-3 -0.0131 9e-3 -0.0236 0.0183-0.0564 0.0325-0.11571 0.0617-0.17744 0.0871-0.0561 0.0917-0.11607 0.17533-0.17957 0.25083-0.15028 0.1404-0.3108 0.28222-0.41381 0.34113 0 0-0.0399 0.0282-0.0776 0.0512-0.0201 0.01-0.0406 0.019-0.0614 0.0279" fill="#eea376"/>
    <path d="m139.61 154.34h-1e-3c5e-3 -3e-3 0.0102-6e-3 0.0152-0.01-7e-4 5e-3 -5e-3 0.01-0.0138 0.01" fill="#eeae8b"/>
    <path d="m139.61 154.34c-2e-3 -3.6e-4 -4e-3 -3.6e-4 -6e-3 -7.1e-4 -5e-3 -0.0286-1e-3 -0.0381 4e-3 -0.0381 6e-3 0 0.0134 0.01 0.0162 0.0194 1e-3 4e-3 1e-3 7e-3 7.1e-4 0.01-5e-3 3e-3 -0.0102 6e-3 -0.0152 0.01" fill="#eea376"/>
    <path d="m137.21 154.97c-0.15311-0.0667-0.49848-0.0988-0.72214-0.0988-0.031 0-0.06 7.1e-4 -0.0857 2e-3 0.13899-0.0296 0.26811-0.0833 0.38417-0.16122 0.0984 0.0713 0.24519 0.16828 0.42369 0.25788" fill="#eeae8b"/>
    <path d="m137.23 154.98c-5e-3 -2e-3 -0.01-5e-3 -0.0152-7e-3 -0.17851-0.0896-0.32527-0.18662-0.42369-0.25788-0.11606 0.078-0.24518 0.13158-0.38418 0.16122-0.0282 1e-3 -0.0526 4e-3 -0.0716 6e-3 -7e-3 -0.0145-0.0123-0.0243-0.0173-0.0307 4e-3 -3.6e-4 8e-3 -2e-3 0.0127-4e-3 0.40746-0.18698-0.47095-2.577-0.89535-4.1367-0.43144-1.5854-0.75494-2.7541-0.8837-2.9228-0.12277-0.16087 0.11147-0.28363 0.32067-0.33126 0.0642-0.0145 0.13088-0.0233 0.19191-0.0233 0.13794 0 0.24906 0.0462 0.24518 0.18133-7e-3 0.26493 0.33549 1.5773 0.77223 3.187 0.41487 1.5289 0.81492 3.7698 1.1501 4.1113 0.01 9e-3 0.0159 0.0141 0.0197 0.0162-6e-3 2e-3 -0.0148 0.0134-0.0215 0.0501m0.0261-0.0483c-7.1e-4 0-2e-3 -3.6e-4 -5e-3 -2e-3 1e-3 -3.6e-4 2e-3 -3.6e-4 2e-3 -3.6e-4 2e-3 0 3e-3 3.6e-4 3e-3 1e-3 3.5e-4 7.1e-4 0 1e-3 -1e-3 1e-3m-0.94192-0.0794c-7e-3 0-0.0106-3e-3 -0.012-6e-3 -1e-3 -3e-3 -7e-4 -6e-3 3e-3 -6e-3 2e-3 0 7e-3 3e-3 0.0134 0.0109-1e-3 3.6e-4 -2e-3 3.6e-4 -4e-3 3.6e-4" fill="#eea376"/>
    <path d="m134.74 154.3s-5e-3 -6e-3 -0.0183-0.0222c8e-3 0.01 0.0183 0.0222 0.0183 0.0222" fill="#eeae8b"/>
    <path d="m134.72 154.28c-2e-3 -3e-3 -5e-3 -7e-3 -8e-3 -0.0106 7e-4 1e-3 4e-3 5e-3 8e-3 0.0106m-8e-3 -0.0106c0-3.5e-4 -3.6e-4 -3.5e-4 -3.6e-4 -3.5e-4l3.6e-4 3.5e-4" fill="#eea376"/>
    <path d="m134.64 154.2c-0.24553-0.20955-0.65934-0.53975-0.77293-0.55139-4e-3 -3.6e-4 -8e-3 -1e-3 -0.012-1e-3 4e-3 3.5e-4 8e-3 1e-3 0.012 1e-3 0.0515 6e-3 0.10054 8e-3 0.14711 8e-3 0.0681 0 0.13088-6e-3 0.18803-0.018 0.0924 0.18662 0.24694 0.3817 0.43779 0.56091" fill="#eeae8b"/>
    <path d="m134.71 154.27c-0.0226-0.0198-0.048-0.0416-0.0751-0.0653-0.19086-0.17921-0.34537-0.37429-0.4378-0.56091-0.0572 0.012-0.11995 0.018-0.18803 0.018-0.0466 0-0.0956-3e-3 -0.14711-8e-3 -4e-3 -3.6e-4 -8e-3 -1e-3 -0.012-1e-3 -0.0998-0.0124-0.20814-0.0395-0.31891-0.0741-8e-3 -0.0212-0.0159-0.0346-0.0222-0.043 9e-3 3e-3 0.0236 7e-3 0.0441 7e-3 7e-3 0 0.0148-3.6e-4 0.0229-1e-3 0.45014-0.0416-1.2711-5.7164-1.3367-5.8738-0.0794-0.19015 0.024-0.23037 0.34361-0.26882 0.0716-9e-3 0.13829-0.0169 0.1972-0.0169 0.11712 0 0.2025 0.0325 0.2286 0.16016 0.01 0.0459 1.0252 5.8981 1.7014 6.7289m-1.2012-0.73518c-2e-3 -7.1e-4 -4e-3 -1e-3 -6e-3 -2e-3 -9e-3 -4e-3 -0.0106-9e-3 -8e-3 -9e-3 2e-3 0 7e-3 3e-3 0.0138 0.0113" fill="#eea376"/>
    <path d="m91.772 238.83-0.05496-4e-3c-0.13106-0.0306-0.25922-0.061-0.38668-0.0832-0.09013-0.0159-0.17131-0.0303-0.25439-0.0448-5.65e-4 -3e-3 -0.0011-6e-3 -0.0017-8e-3 0.07497 0.0134 0.15226 0.0267 0.2322 0.0409 0.15378 0.0272 0.30716 0.0624 0.46549 0.0995" fill="#f1b89a"/>
    <path d="m91.795 238.83-0.02371-2e-3c-0.15833-0.0371-0.31171-0.0724-0.46549-0.0995-0.07994-0.0142-0.15723-0.0276-0.2322-0.0409-0.07123-0.36091 0.11479-1.2539 0.37867-1.6818 0.1257-0.20353 0.27728-0.31391 0.37899-0.31391 0.09948 0 0.15131 0.10514 0.08544 0.33087-0.20906 0.71079-0.12778 1.029-0.12171 1.8073" fill="#f0a77a"/>
    <path d="m89.603 238.37c-0.26292-0.0821-0.48853-0.18094-0.70168-0.31295 0.02836-0.50023 0.14122-0.99798 0.40002-1.4184 0.1155-0.18672 0.22422-0.28608 0.28885-0.28608 0.06463 0 0.08474 0.10018 0.02233 0.31323-0.19114 0.65264-0.01972 1.0009-0.0095 1.7042" fill="#f0a77a"/>
    <path d="m104.7 239.22v-2e-3c0.19015-0.0186 0.369-0.0335 0.5588-0.0335h0.0123c-0.18803 0-0.37571 0.0159-0.57115 0.035" fill="#f1b89a"/>
    <path d="m105.66 239.26c-0.12982-0.0215-0.25929-0.048-0.38876-0.0805h-3.5e-4 -0.0123c-0.1898 0-0.36866 0.0149-0.5588 0.0335 0.0399-1.5242-0.36866-1.9645-0.29316-2.5061 0.048-0.34533 0.26423-0.51993 0.48013-0.51993 0.21131 0 0.42227 0.16716 0.47378 0.50436 0.0981 0.64492 0.35313 1.6412 0.29951 2.5687" fill="#f0a77a"/>
    <path d="m107.65 239.18c0.0437-0.76757 0.13229-1.2854-0.0945-2.0556-0.0759-0.25893-0.0303-0.37606 0.0706-0.37606 0.11183 0 0.29175 0.14428 0.44803 0.39867 0.33831 0.54928 0.43427 1.232 0.48401 1.8824-0.1083-6e-3 -0.22014-0.0145-0.33726-0.0278-0.18909 0.0728-0.37959 0.12981-0.57079 0.17846" fill="#f0a77a"/>
    <path d="m110.31 238.83c0.1584-0.0371 0.31186-0.0724 0.46567-0.0995 0.0797-0.0142 0.15734-0.0276 0.23213-0.0409-3.6e-4 3e-3 -1e-3 6e-3 -1e-3 8e-3 -0.0833 0.0145-0.1644 0.0289-0.25436 0.0448-0.1277 0.0222-0.25576 0.0526-0.38664 0.0832l-0.0554 4e-3" fill="#f1b89a"/>
    <path d="m110.29 238.83c6e-3 -0.77831 0.0875-1.0965-0.12136-1.8073-0.066-0.22573-0.0141-0.33087 0.085-0.33087 0.10195 0 0.25365 0.11038 0.37924 0.31391 0.26388 0.42789 0.44979 1.3208 0.37853 1.6818-0.0748 0.0134-0.1524 0.0267-0.23213 0.0409-0.15381 0.0272-0.30727 0.0624-0.46567 0.0995l-0.0236 2e-3" fill="#f0a77a"/>
    <path d="m112.48 238.37c0.0102-0.70335 0.18168-1.0516-0.01-1.7042-0.0624-0.21305-0.0423-0.31323 0.0226-0.31323 0.0646 0 0.17322 0.0994 0.28858 0.28608 0.25893 0.42044 0.37182 0.91819 0.40005 1.4184-0.21308 0.13201-0.43851 0.23082-0.70168 0.31295" fill="#f0a77a"/>
    <path d="m108.82 133.02c0.64347-1.4464 1.4108-3.575 1.7251-6.0325 0.0353-0.27622 0.0967-0.41698 0.15981-0.41698 0.061 0 0.12312 0.12982 0.16475 0.39476 0.19614 1.2576 0.23142 3.5899-1.3712 6.0381-0.22436 7e-3 -0.4512 0.012-0.67839 0.0166" fill="#f2ac7e"/>
    <path d="m93.604 133.22c-0.1874 0-0.37123-1e-3 -0.55492-3e-3 -1.7268-2.5315-1.6756-4.9579-1.4662-6.2491 0.04286-0.26423 0.10555-0.3937 0.16633-0.3937 0.06325 0 0.12418 0.14076 0.15804 0.41769 0.31323 2.5665 1.1223 4.7777 1.7728 6.2279h-0.07606" fill="#f2ac7e"/>
    <path d="m117.96 135.98c-0.0452-0.3108-0.0794-0.64523-0.10442-1.0227-0.14711-2.1749-0.45402-3.9335-0.70485-5.2229-0.0106-0.0547-0.0441-0.10231-0.0921-0.13123-0.048-0.0286-0.10548-0.0353-0.15946-0.0187-1.9798 0.61736-9.2424 1.5141-16.116 1.5141-6.9116 0-13.482-0.9585-15.568-1.6506-0.05334-0.0173-0.11204-0.012-0.16083 0.0169-0.04879 0.0286-0.08294 0.0765-0.09384 0.13159-0.26113 1.3282-0.58014 3.1355-0.72898 5.3418-0.02508 0.37747-0.05927 0.71155-0.10389 1.0213-0.36728 2.5428-0.99564 7.7047-1.08 13.708-0.0011 0.0769 0.04328 0.14817 0.11328 0.18062 1.1961 0.55916 5.3885 1.3324 10.357 1.3324 2.1619 0 4.4719-0.14675 6.7448-0.52105 0.0945-0.0155 0.16405-0.0974 0.16475-0.19332l6e-3 -1.6041c8e-3 -2.3781 0.0162-2.9305 0.0423-4.8235l2e-3 -0.12489h1.1292l2e-3 0.12489c0.0265 1.893 0.0342 2.4454 0.0427 4.8235l6e-3 1.6041c3.6e-4 0.096 0.0698 0.1778 0.16475 0.19332 7.4958 1.2319 15.385-0.01 17.101-0.81139 0.0702-0.0325 0.11465-0.10371 0.11359-0.18062-0.084-6.0029-0.7112-11.152-1.077-13.688" fill="#b2a39d"/>
    <path d="m98.309 55.186c-0.25647 0.55633-0.76376 0.7627-1.416 0.80645 0.05292 0.0088-0.56727 0.0702-1.1243 0.01129-0.67239-0.05645-1.0149-0.32385-1.3827-0.7747-0.08971-0.10619-0.18934-0.38206-0.13409-0.58491 0.1451-0.5334 3.9577-0.623 4.1549 0 0.04233 0.13335-0.03916 0.41416-0.09772 0.54187" fill="#fff"/>
    <path d="m94.106 54.633c0.28501-0.61807 0.84882-0.84772 1.5741-0.89641-0.05891-0.0095 0.63077-0.07796 1.2495-0.0127 0.74754 0.06315 1.1285 0.36019 1.5374 0.86113 0.09948 0.11818 0.33972 0.52176 0.14887 0.65052-0.16122 0.10866-0.32279-0.10689-0.45861-0.25859-0.44591-0.49706-0.68509-0.52388-1.4153-0.54187-0.15134-0.0039-0.72037-0.01552-0.87101 0-0.52282 0.05362-1.0428 0.0441-1.3547 0.52211-0.113 0.17145-0.29958 0.41381-0.51911 0.27834-0.13021-0.08043 0.04357-0.46073 0.10887-0.60254" fill="#3a1e0a"/>
    <path d="m96.226 54.211c-0.19297 0.04551-0.44697 0.14499-0.65088 0.1076-0.08114 0.139-0.1337 0.30304-0.15663 0.4819-0.07197 0.56409 0.21872 1.0626 0.83961 1.1352 0.66816 0.07726 1.0294-0.34537 1.1024-0.90911 0.02752-0.2166 0.0021-0.42298-0.07408-0.59972-0.33937-0.254-0.64699-0.31362-1.0604-0.2159" fill="#6b380e"/>
    <path d="m96.264 54.103c-0.133 0.03175-0.31256 0.04092-0.46672 0.06174-0.02434 0.04198-0.19614 0.11924-0.2219 0.1531-0.28116 0.375 0.1778 0.29916 0.23636 0.39264 0.07832 0.12418 0.04127 0.12876 0.03316 0.25541-0.01552 0.24871 0.17039 0.45826 0.44979 0.49107 0.36865 0.04304 0.56762-0.18662 0.60678-0.49389 0.02328-0.18344 0.0092-0.16898 0.16722-0.27658 0.08149-0.05644 0.29669-0.0056 0.24412-0.24165 0-0.27905-0.62548-0.44168-1.0488-0.34184" fill="#3a1e0a"/>
    <path d="m103.69 55.186c0.25647 0.55633 0.76376 0.7627 1.416 0.80645-0.0529 0.0088 0.56726 0.0702 1.124 0.01129 0.67274-0.05645 1.0153-0.32385 1.3832-0.7747 0.0896-0.10619 0.18909-0.38206 0.1337-0.58491-0.14499-0.5334-3.9575-0.623-4.155 0-0.0423 0.13335 0.0392 0.41416 0.0981 0.54187" fill="#fff"/>
    <path d="m107.89 54.633c-0.28504-0.61807-0.84878-0.84772-1.5744-0.89641 0.0593-0.0095-0.63042-0.07796-1.2492-0.0127-0.74754 0.06315-1.1285 0.36019-1.5374 0.86113-0.0995 0.11818-0.33972 0.52176-0.14887 0.65052 0.16122 0.10866 0.32279-0.10689 0.45861-0.25859 0.44591-0.49706 0.6851-0.52388 1.4154-0.54187 0.15134-0.0039 0.72002-0.01552 0.87101 0 0.52281 0.05362 1.0424 0.0441 1.3547 0.52211 0.11289 0.17145 0.29951 0.41381 0.51894 0.27834 0.13053-0.08043-0.0434-0.46073-0.10866-0.60254" fill="#3a1e0a"/>
    <path d="m105.77 54.211c0.19297 0.04551 0.44662 0.14499 0.65087 0.1076 0.0811 0.139 0.13371 0.30304 0.15664 0.4819 0.072 0.56409-0.21872 1.0626-0.83961 1.1352-0.66852 0.07726-1.0294-0.34537-1.1024-0.90911-0.0275-0.2166-2e-3 -0.42298 0.0741-0.59972 0.33937-0.254 0.64699-0.31362 1.0604-0.2159" fill="#6b380e"/>
    <path d="m105.73 54.103c0.133 0.03175 0.31221 0.04092 0.46673 0.06174 0.0243 0.04198 0.19614 0.11924 0.22189 0.1531 0.28082 0.375-0.17815 0.29916-0.23671 0.39264-0.0783 0.12418-0.0409 0.12876-0.0328 0.25541 0.0155 0.24871-0.17039 0.45826-0.44979 0.49107-0.36865 0.04304-0.56762-0.18662-0.60678-0.49389-0.0233-0.18344-9e-3 -0.16898-0.16722-0.27658-0.0815-0.05644-0.29668-0.0056-0.24412-0.24165 0-0.27905 0.62548-0.44168 1.0488-0.34184" fill="#3a1e0a"/>
    <path d="m105.08 141.21c-0.0981-0.03-0.20038 0.0187-0.24025 0.11183-0.43674 1.0114-1.6796 1.6394-2.6116 1.8669-0.63888 0.15592-1.6708 0.14358-2.4529-3e-3 -0.98778-0.18521-2.0694-0.8636-2.5012-1.8641-0.04022-0.0931-0.14323-0.14182-0.24059-0.11183-0.09701 0.0289-0.15663 0.12594-0.139 0.22577 0.0042 0.024 0.69003 2.2264 3.3115 2.4698 0 8e-3 1.7022 0.0342 1.7014 0 2.588-0.22613 3.3073-2.4458 3.3115-2.4698 0.0176-0.0998-0.042-0.19685-0.13899-0.22577" fill="#9b8e87"/>
    <path d="m100.98 64.751h-0.0367c-0.7613 0-1.2012-0.20108-1.555-0.36266l-0.05115-0.02364c-0.15522-0.0702-0.12841-0.14217-0.11677-0.16263 0.02646-0.0448 0.09419-0.06844 0.18944-0.06844 0.05115 0 0.11007 0.0071 0.17462 0.02081 0.4759 0.1016 0.9458 0.1524 1.4065 0.1524 0.45615 0 0.90347-0.04974 1.3388-0.14922 0.0709-0.01587 0.13052-0.02258 0.17991-0.02258 0.10372 0 0.16193 0.02999 0.18345 0.06597 0.0123 0.02046 0.0402 0.09278-0.11571 0.16369l-0.0635 0.02858c-0.34784 0.15946-0.78105 0.35772-1.5339 0.35772" fill="#eea376"/>
    <path d="m101.07 60.817h-0.0378c-0.81915 0-1.2739-0.23671-1.6454-0.47554-0.18344-0.11748-0.11959-0.19262 0.13617-0.19262 0.02293 0 0.04692 7.06e-4 0.07267 0.0018 0.43215 0.02046 0.99695 0.0314 1.5526 0.0314 0.49318 0 0.97967-0.0085 1.3592-0.02681 0.0275-0.0014 0.0536-0.0021 0.078-0.0021 0.25083 0 0.31115 0.07161 0.12983 0.18838-0.37183 0.23883-0.82656 0.47554-1.6454 0.47554" fill="#eea376"/>
  </g>
</svg>
