<?xml version="1.0" standalone="no"?>
<!DOCTYPE svg PUBLIC "-//W3C//DTD SVG 20010904//EN"
 "http://www.w3.org/TR/2001/REC-SVG-20010904/DTD/svg10.dtd">
<svg version="1.0" xmlns="http://www.w3.org/2000/svg"
 width="672.000000pt" height="672.000000pt" viewBox="0 0 672.000000 672.000000"
 preserveAspectRatio="xMidYMid meet">
<metadata>
Created by potrace 1.14, written by Peter Selinger 2001-2017
</metadata>
<g transform="translate(0.000000,672.000000) scale(0.100000,-0.100000)"
fill="#000000" stroke="none">
<path d="M1995 5804 c-237 -37 -419 -98 -600 -201 -348 -199 -606 -516 -730
-898 -53 -160 -75 -307 -75 -488 0 -313 66 -548 239 -848 507 -885 891 -1546
934 -1608 75 -111 292 -324 406 -400 103 -68 280 -157 377 -190 188 -62 395
-95 571 -89 61 2 107 0 101 -3 -17 -11 195 -19 242 -9 25 5 75 9 112 10 85 0
197 15 318 42 329 72 653 266 864 518 120 144 62 47 909 1515 83 143 171 303
198 355 183 367 214 806 83 1209 -38 114 -145 324 -221 430 -253 352 -659 593
-1099 652 -145 19 -395 7 -539 -26 -274 -62 -518 -185 -713 -359 l-63 -56 -82
69 c-208 175 -453 295 -715 352 -75 16 -141 21 -292 24 -107 2 -208 1 -225 -1z"/>
</g>
</svg>
