<svg fill="none" xmlns="http://www.w3.org/2000/svg" viewBox="-1.5 0.08 142 281"> <path d="M0 164.372C3.14355 164.372 4.55738 170.216 10.8833 168.473C17.2092 166.731 18.938 158.036 23 158.036C28.4521 158.036 36.3369 178.267 40.043 172.594C47.9176 160.542 51.5479 1.58041 51.5479 1.58041C51.5479 1.58041 56.8242 253.366 56.8242 276.679C56.8242 299.992 59.1824 175.498 67.6787 164.372C76.1751 153.246 77.3401 154.13 79.6328 150.954C94.2285 130.736 91.9681 105.334 101.062 105.334C109.526 105.334 111.418 150.954 121.695 164.372C125.113 168.834 128.468 160.292 131.908 160.581C134.875 160.83 135.88 164.372 139 164.372" stroke="#FF0000" stroke-width="3" stroke-linejoin="round"/> </svg>