<?xml version="1.0" encoding="UTF-8"?>
<svg width="66.28mm" height="196.5mm" version="1.1" viewBox="0 0 66.28 196.5" xmlns="http://www.w3.org/2000/svg">
  <g transform="translate(-129.14 -83.081)">
    <path d="m163.31 266.55c7.1e-4 0.98185-0.13546 2.824-0.20179 3.561l-0.025 0.25894c-0.11924 1.246-0.22155 2.322-0.73167 3.9578-0.042 0.20285-0.0776 0.39687-0.10689 0.58279-0.0296-0.19156-0.066-0.39194-0.10936-0.6011-0.50482-1.6176-0.60748-2.6931-0.72672-3.9392l-0.0247-0.25824c-0.15946-1.7823-0.19827-3.7342-0.12242-6.143 0.0314-1.0061 0.0663-2.0118 0.1009-3.0169 0.025-0.72775 0.0501-1.4587 0.0744-2.1918l0.0416-1e-3c0.18697-4.783 0.32491-11.268-0.24201-17.503-0.7941-8.7443-0.7112-10.722-0.51011-12.66 0.0353-0.3429 0.0744-0.72143 0.11324-1.1839 0.2293-2.7238 0.48542-7.965 0.66851-13.679 0.39053-12.194 0.58738-18.346-0.33584-33.741 0.36689 0.0332 0.74224 0.0667 1.1091 0.049 0.36865 6e-3 0.74295-0.0159 1.1098-0.049-0.92322 15.393-0.72637 21.546-0.33549 33.741 0.18309 5.7139 0.43886 10.955 0.66816 13.679 0.0388 0.46249 0.078 0.84102 0.1136 1.1839 0.13299 1.283 0.21378 3.2456 0.0233 6.1641l-0.0148 7e-4c-0.0977 1.4891-0.26529 3.5267-0.53163 6.4622-0.64418 7.0873-0.37959 14.268-0.16652 19.409 0.0854 2.0606 0.16616 4.0115 0.17745 5.737l-0.0152 0.1809m31.879-85.466-4e-3 -6e-3c-0.41416-0.61948-0.86289-1.5067-1.2968-2.3643-0.45191-0.89358-0.87841-1.7371-1.2654-2.2913-1.1306-1.6196-2.2006-2.2782-3.1143-2.7682-0.70732-0.37923-1.2146-1.0516-1.3914-1.8443-0.29104-1.3053-1.3148-9.5275-1.9636-12.234-0.46743-1.9498-0.56868-3.1443-0.96943-4.5099-0.80399-2.74-1.439-4.9043-1.7932-8.7662-0.41558-4.5328-1.1292-11.719-1.4722-15.173l-0.14569-1.4676c-0.55034-5.2236-2.7302-8.4533-6.4791-9.5991-0.30445-0.0931-0.72602-0.21026-1.2196-0.34749-2.0712-0.57538-5.3601-1.5388-6.5737-2.5273-0.44415-0.3623-0.70944-0.96696-0.70944-1.6207l-0.085-4.9152h-8.8505l-0.085 4.9177c0 0.65123-0.26529 1.2559-0.70944 1.6182-1.2136 0.98849-4.5028 1.9519-6.5737 2.5273-0.49353 0.13723-0.91475 0.25436-1.2196 0.34749-3.7486 1.1458-5.9288 4.3755-6.4791 9.6005-0.0476 0.48084-0.12312 1.2298-0.21731 2.1643-0.35525 3.519-1.0164 10.069-1.4005 14.476-0.33655 3.8583-0.97543 6.0194-1.784 8.7559-0.40429 1.3677-0.50977 2.565-0.97861 4.5191-0.64911 2.7072-1.6725 10.929-1.9636 12.234-0.17674 0.79269-0.68368 1.4651-1.391 1.8443-0.9144 0.49001-1.984 1.1486-3.1147 2.7682-0.387 0.55421-0.8135 1.3977-1.2654 2.2913-0.43392 0.8576-0.88265 1.7448-1.3003 2.37-0.23319 0.37606-0.29034 0.66287-0.17463 0.87701 0.10125 0.18732 0.31892 0.28645 0.64735 0.29457 1.0813 0.0328 1.8606-1.2622 2.1188-1.6859l0.0455-0.0744c0.30022-0.48437 0.51823-0.80116 0.67381-1.0082-0.11995 0.42086-0.3422 1.1374-0.73801 2.3354l-0.0861 0.2614c-0.66252 2.062-1.0428 3.682-1.1966 5.0987-0.10972 1.0111 0.13229 1.7427 0.68227 2.0726 0.19156 0.44591 0.47343 0.71967 0.83714 0.81315 0.52846 0.13582 1.0693-0.1591 1.3219-0.32808 0.22684 0.19756 0.53128 0.2667 0.87348 0.19473 0.53375-0.11112 1.1303-0.56409 1.3751-1.0082 0.0723 0.0205 0.15522 0.0289 0.24588 0.0289 0.4893-0.01 1.2044-0.35524 1.6997-1.106 0.63958-0.96979 1.0164-2.0447 1.3808-3.0843 0.10442-0.29739 0.20673-0.58985 0.31326-0.87313 0.5013-1.3307 1.676-4.7149 1.759-7.3872 0.0296-0.94968 0.17357-1.844 0.42722-2.6575 1.1515-3.6862 1.7142-5.5496 2.4497-7.6136 1.0283-2.8854 1.7709-4.9699 2.4631-8.104 0.56304-2.5499 0.71367-5.5351 1.2965-9.4001l0.25576-1.6919c0.42298-3.483 1.0598-7.9079 1.4305-9.9871 1.6559 4.2542 2.2804 13.857 2.4762 17.934 0.0896 1.8574-0.92887 4.0873-2.2183 6.9102-1.4393 3.1517-3.2304 7.0739-4.1007 11.963-1.6111 9.0502-0.60678 15.323 0.87383 22.583 1.0506 5.1513 4.3931 23.588 4.1328 26.852 0.0261 2.1294-0.13723 4.9156-0.26881 7.1547-0.0871 1.4873-0.16264 3.9469-0.16299 4.6955-3.5e-4 0.35031 7e-3 0.69603 0.0134 1.0421l-0.0123 2e-3c0.1457 7.4598 1.8164 14.73 3.1746 19.988 0.18344 0.71148 0.36124 1.3987 0.52775 2.0612 0.59867 2.3806 1.234 5.2024 1.4083 8.0793 0.0208 0.34216 0.0476 0.68228 0.0744 1.0213 0.061 0.77862 0.12453 1.5839 0.10689 2.3848l-5e-3 0.27023c-0.0113 0.79085-0.025 1.7748-0.45896 2.3598-0.39123 0.52765-1.0358 0.87161-1.7815 1.2699-0.756 0.40333-1.6132 0.86043-2.4289 1.6225-0.21308 0.19829-0.30833 0.54818-0.24836 0.91405 0.0833 0.51111 0.44415 0.94643 1.0121 1.2026 1.2418 0.38557 2.2719 0.713 3.1366 0.98736 2.703 0.85839 3.822 1.2139 4.7124 1.2309 0.93204 0.0142 1.4559-0.26459 1.5628-0.32839 0.14887-0.0617 0.9338-0.44552 1.2365-1.8048 0.27657 1.2696 0.98178 1.6479 1.1691 1.7275 0.12524 0.10625 0.54928 0.37607 1.6358 0.4057l0.0843 1e-3c0.83784 0 1.8704-0.33307 4.2545-1.1017 0.93909-0.30234 2.0884-0.67304 3.5415-1.1264 0.54575-0.24736 0.90664-0.68268 0.9899-1.1938 0.0596-0.36545-0.0356-0.71576-0.24801-0.91363-0.83326-0.77861-1.7554-1.2718-2.5693-1.7068-0.73519-0.39332-1.3695-0.73301-1.6281-1.1461-0.73413-1.1761-0.53198-3.2444-0.369-4.9065 0.036-0.37246 0.0702-0.7203 0.0903-1.0283 0.18591-2.8406 0.8001-5.6449 1.3455-7.8468l0.0208-3.9e-4c0.0282-0.11356 0.0547-0.22465 0.0836-0.34011 0.16651-0.66241 0.34431-1.3501 0.52775-2.0613 1.4231-5.5104 3.194-13.15 3.1888-21.065-7e-4 -0.74859-0.0762-3.2082-0.16334-4.6955-0.13123-2.2391-0.29492-5.0253-0.26916-7.1723-0.26-3.2459 3.0826-21.683 4.1335-26.834 1.4803-7.2598 2.4846-13.533 0.87348-22.583-0.86995-4.8895-2.6614-8.8117-4.1007-11.963-1.2894-2.8229-2.3075-5.0528-2.2183-6.9102 0.10019-2.0839 0.96344-13.683 2.48-17.912 0.37148 2.0888 1.0054 6.495 1.4277 9.9706l0.25471 1.6863c0.58279 3.865 1.0862 7.203 1.6492 9.7529 0.69215 3.1337 1.082 4.8655 2.1103 7.7509 0.73554 2.0638 1.2979 3.9271 2.4493 7.614 0.25435 0.81351 0.39793 1.7078 0.42792 2.6575 0.0829 2.6723 1.2573 6.0565 1.7586 7.3872 0.10653 0.28328 0.20919 0.57574 0.31326 0.87313 0.36442 1.0396 0.74154 2.1146 1.3808 3.0843 0.4953 0.75071 1.2107 1.0964 1.6997 1.106 0.09 2e-3 0.17356-8e-3 0.24624-0.0289 0.24447 0.44414 0.84102 0.89711 1.3748 1.0082 0.34326 0.072 0.64664 3e-3 0.87348-0.19473 0.25294 0.16898 0.79375 0.46285 1.3219 0.32808 0.36407-0.0935 0.64558-0.36724 0.83749-0.81315 0.54998-0.32985 0.79164-1.0615 0.68192-2.0726-0.15381-1.4168-0.5341-3.0367-1.1966-5.0987-0.26176-0.81421-0.59267-1.906-0.76412-2.5583 0.13265 0.18874 0.30904 0.46179 0.54328 0.85266l0.11571 0.19086c0.25824 0.42333 1.0365 1.7117 2.1191 1.6866 0.32843-8e-3 0.54645-0.10725 0.64735-0.29457 0.11571-0.21414 0.0586-0.50095-0.17463-0.87701" fill="#ffc697"/>
    <path d="m131.54 189.6c-0.127-0.16158-0.23495-0.33726-0.31044-0.42933 0.0378 0.0293 0.0769 0.0561 0.11818 0.0808 0.0564 0.13124 0.1203 0.2473 0.19226 0.34855" fill="#f1b89a"/>
    <path d="m131.86 189.92c-2e-3 0-0.0251-0.0349-0.0554-0.0483-0.0935-0.066-0.18273-0.16404-0.26423-0.26775-0.072-0.10125-0.13582-0.21731-0.19226-0.34855-0.0413-0.0247-0.0804-0.0515-0.11818-0.0808-6e-3 -7e-3 -0.0109-0.0131-0.0162-0.0191 0.32068-0.0406 0.72461-1.9251 1.3293-3.8305 0.375-1.1804 0.67451-2.4059 0.91581-3.1715 0.031-0.0991 0.0713-0.14217 0.1404-0.14217 0.0533 0 0.12312 0.0258 0.21908 0.0713 0.16298 0.0773 0.32808 0.1069 0.25823 0.27764-0.25823 0.62794-0.69744 1.9823-1.0732 3.1658-0.54539 1.718-1.3406 3.9296-1.1543 4.3649 9e-3 0.0212 0.012 0.0289 0.0109 0.0289" fill="#f0a77a"/>
    <path d="m131.19 189.15c-9e-3 0-0.0134-1e-3 -0.0137-2e-3 -3.6e-4 -1e-3 3e-3 -3e-3 9e-3 -3e-3 3e-3 0 7e-3 3.5e-4 0.012 1e-3 1e-3 1e-3 3e-3 2e-3 4e-3 3e-3 -5e-3 7.1e-4 -8e-3 7.1e-4 -0.0117 7.1e-4" fill="#f1b89a"/>
    <path d="m131.2 189.15c-1e-3 -1e-3 -3e-3 -2e-3 -4e-3 -3e-3 4e-3 7e-4 7e-3 1e-3 0.0113 2e-3 -2e-3 3.5e-4 -5e-3 7e-4 -7e-3 7e-4" fill="#f0a77a"/>
    <path d="m133.13 189.94c0.15205-0.0677 0.28046-0.14499 0.37183-0.20602 0.0945 0.0822 0.20214 0.14217 0.32067 0.17886-0.0716-0.0116-0.18203-0.0191-0.29703-0.0191-0.15135 0-0.3101 0.0131-0.39547 0.0462" fill="#f1b89a"/>
    <path d="m133.11 189.95c-0.0113 0-0.0261-5e-3 6e-3 -0.0356 0.30445-0.29633 0.82197-2.4148 1.288-3.8269 0.49071-1.487 0.87983-2.6998 0.89535-2.951 7e-3 -0.11359 0.0826-0.15381 0.17956-0.15381 0.0603 0 0.12912 0.0155 0.19403 0.0392 0.16898 0.0617 0.35278 0.19614 0.23848 0.33831-0.11994 0.14958-0.48189 1.2284-0.96591 2.6924-0.47625 1.4408-1.4026 3.665-1.0813 3.8742-0.012-3e-3 -0.0261-6e-3 -0.0427-9e-3 -0.11853-0.0367-0.22613-0.0967-0.32067-0.17886-0.0914 0.061-0.21978 0.13829-0.37183 0.20602-4e-3 1e-3 -7e-3 3e-3 -0.0102 4e-3 0 0-4e-3 7e-4 -9e-3 7e-4" fill="#f0a77a"/>
    <path d="m133.88 189.94s-4e-3 -2e-3 -8e-3 -5e-3c6e-3 4e-3 8e-3 5e-3 8e-3 5e-3" fill="#f1b89a"/>
    <path d="m133.87 189.93c-2e-3 -1e-3 -5e-3 -3e-3 -6e-3 -4e-3 3e-3 2e-3 5e-3 3e-3 6e-3 4e-3m-6e-3 -4e-3s-3.6e-4 -3.5e-4 -7.1e-4 -3.5e-4c3.5e-4 0 7.1e-4 3.5e-4 7.1e-4 3.5e-4m-7.1e-4 -3.5e-4c-3.5e-4 -3.6e-4 -3.5e-4 -3.6e-4 -3.5e-4 -3.6e-4l3.5e-4 3.6e-4m-3.5e-4 -3.6e-4h-3.5e-4 3.5e-4m-3.5e-4 0c0-3.5e-4 -3.6e-4 -3.5e-4 -3.6e-4 -3.5e-4s3.6e-4 0 3.6e-4 3.5e-4m-3.6e-4 -3.5e-4 -3.5e-4 -3.5e-4 3.5e-4 3.5e-4" fill="#f0a77a"/>
    <path d="m135.35 189.41c0.16722-0.14993 0.30727-0.31644 0.39829-0.48154 0.0723 0.0205 0.15522 0.0289 0.24588 0.0289 0.0561-1e-3 0.11501-7e-3 0.17639-0.0166-0.0783 0.0184-0.15981 0.0385-0.2159 0.0582-0.16122 0.0575-0.40816 0.25118-0.60466 0.41099" fill="#f1b89a"/>
    <path d="m135.21 189.5c-7e-3 0-6e-3 -8e-3 0.0141-0.0314 0.62618-0.73166 1.9713-6.186 1.983-6.2283 0.0279-0.10372 0.0875-0.13511 0.16651-0.13511 0.0568 0 0.12383 0.0162 0.19685 0.0335 0.26106 0.0614 0.3429 0.1076 0.26212 0.28116-0.0667 0.14359-1.9128 5.4113-1.5445 5.486-0.0342 8e-3 -0.0737 0.0173-0.1136 0.0268-0.0614 0.01-0.1203 0.0155-0.17639 0.0166-0.0907 0-0.17357-8e-3 -0.24588-0.0289-0.091 0.1651-0.23107 0.33161-0.39829 0.48154-0.0303 0.0247-0.0596 0.0487-0.0871 0.0709 0 0-0.043 0.0272-0.0568 0.0272" fill="#f0a77a"/>
    <path d="m136.33 188.92h-3.5e-4 3.5e-4m-3.5e-4 0h-7.1e-4 7.1e-4m-7.1e-4 0c0-3.5e-4 -3.5e-4 -3.5e-4 -3.5e-4 -3.5e-4s3.5e-4 0 3.5e-4 3.5e-4m-3.5e-4 -3.5e-4c-5e-3 -1e-3 -0.0233-5e-3 -0.0342-7e-3 0.0208 4e-3 0.031 6e-3 0.0342 7e-3" fill="#f1b89a"/>
    <path d="m136.29 188.91c-7.1e-4 -3.6e-4 -1e-3 -3.6e-4 -2e-3 -3.6e-4 3.5e-4 0 1e-3 0 2e-3 3.6e-4m-2e-3 -3.6e-4c-3.6e-4 -3.5e-4 -3.6e-4 -3.5e-4 -7.1e-4 -3.5e-4 3.5e-4 0 3.5e-4 0 7.1e-4 3.5e-4m-7.1e-4 -3.5e-4c-7.1e-4 0-1e-3 -3.5e-4 -2e-3 -3.5e-4 7.1e-4 0 1e-3 3.5e-4 2e-3 3.5e-4m-2e-3 -3.5e-4c-3.5e-4 0-7e-4 0-1e-3 -3.6e-4 3.6e-4 3.6e-4 7.1e-4 3.6e-4 1e-3 3.6e-4m-1e-3 -3.6e-4c-7e-4 0-1e-3 0-1e-3 -3.5e-4 3.6e-4 3.5e-4 7.1e-4 3.5e-4 1e-3 3.5e-4m-1e-3 -3.5e-4h-3.5e-4 3.5e-4m-3.5e-4 0h-7e-4 7e-4" fill="#f0a77a"/>
    <path d="m193.02 189.6c0.0716-0.10089 0.13547-0.21696 0.19191-0.34784 0.0409-0.0247 0.0804-0.0515 0.11783-0.0804-0.0755 0.0921-0.18344 0.2674-0.30974 0.42827" fill="#f1b89a"/>
    <path d="m192.7 189.92c-1e-3 0 2e-3 -8e-3 0.0109-0.0289 0.18626-0.43533-0.6089-2.6469-1.1539-4.3649-0.37571-1.1836-0.81527-2.5379-1.0735-3.1658-0.0699-0.17074 0.0956-0.20038 0.25823-0.27764 0.096-0.0455 0.16616-0.0713 0.21908-0.0713 0.0691 0 0.10936 0.043 0.1404 0.14217 0.2413 0.76553 0.54116 1.9911 0.91581 3.1715 0.60466 1.9054 1.009 3.7899 1.3296 3.8305-5e-3 6e-3 -0.0109 0.0127-0.0166 0.0194-0.0374 0.0289-0.0769 0.0557-0.11783 0.0804-0.0564 0.13088-0.12029 0.24695-0.19191 0.34784-0.0818 0.10407-0.1711 0.20214-0.26493 0.26846-0.03 0.0134-0.0529 0.0483-0.0554 0.0483" fill="#f0a77a"/>
    <path d="m193.37 189.15c-3e-3 0-7e-3 0-0.0117-7.1e-4 1e-3 -1e-3 3e-3 -2e-3 4e-3 -3e-3 5e-3 -1e-3 9e-3 -1e-3 0.012-1e-3 6e-3 0 0.01 1e-3 9e-3 3e-3 -3.5e-4 1e-3 -5e-3 2e-3 -0.0138 2e-3" fill="#f1b89a"/>
    <path d="m193.35 189.15c-2e-3 0-4e-3 -3.5e-4 -7e-3 -7e-4 4e-3 -1e-3 8e-3 -2e-3 0.0109-2e-3 -1e-3 1e-3 -3e-3 2e-3 -4e-3 3e-3" fill="#f0a77a"/>
    <path d="m191.44 189.95c-0.0822-0.0363-0.248-0.0505-0.4057-0.0505-0.1143 0-0.22472 7e-3 -0.29633 0.0191 0.11818-0.0367 0.22578-0.0967 0.31997-0.17886 0.0931 0.0624 0.22578 0.14147 0.38206 0.21026" fill="#f1b89a"/>
    <path d="m191.45 189.95c-4e-3 0-8e-3 -7e-4 -9e-3 -7e-4 -0.15628-0.0688-0.28893-0.14782-0.38206-0.21026-0.0942 0.0822-0.20179 0.14217-0.31997 0.17886-0.0166 3e-3 -0.0314 6e-3 -0.0434 9e-3 0.32173-0.2092-0.60466-2.4335-1.0813-3.8742-0.48402-1.464-0.84561-2.5428-0.96591-2.6924-0.1143-0.14217 0.0695-0.27657 0.23848-0.33831 0.0649-0.0236 0.1337-0.0392 0.19402-0.0392 0.097 0 0.17287 0.0402 0.17992 0.15381 0.0152 0.25118 0.40429 1.464 0.895 2.951 0.46602 1.4122 0.98354 3.5306 1.2883 3.8269 0.0317 0.031 0.0169 0.0356 6e-3 0.0356" fill="#f0a77a"/>
    <path d="m190.67 189.94c3.5e-4 -3.5e-4 1e-3 -7e-4 4e-3 -2e-3 -2e-3 1e-3 -3e-3 2e-3 -4e-3 2e-3m4e-3 -2e-3c1e-3 -7.1e-4 2e-3 -2e-3 4e-3 -3e-3 -1e-3 1e-3 -3e-3 2e-3 -4e-3 3e-3" fill="#f1b89a"/>
    <path d="m190.68 189.93c3.5e-4 0 7.1e-4 -3.5e-4 1e-3 -7e-4 -3.5e-4 3.5e-4 -7.1e-4 7e-4 -1e-3 7e-4m1e-3 -7e-4h3.5e-4 -3.5e-4m3.5e-4 0c7.1e-4 -3.5e-4 2e-3 -1e-3 3e-3 -2e-3 -1e-3 7.1e-4 -2e-3 1e-3 -3e-3 2e-3m3e-3 -2e-3v-3.5e-4 3.5e-4m0-3.5e-4h3.6e-4 -3.6e-4m3.6e-4 0s3.5e-4 0 3.5e-4 -3.5e-4c0 3.5e-4 -3.5e-4 3.5e-4 -3.5e-4 3.5e-4m3.5e-4 -3.5e-4c3.5e-4 0 7e-4 -3.5e-4 1e-3 -7.1e-4 -3.6e-4 3.6e-4 -7.1e-4 7.1e-4 -1e-3 7.1e-4m1e-3 -7.1e-4c3.5e-4 0 3.5e-4 0 7e-4 -3.5e-4 -3.5e-4 3.5e-4 -3.5e-4 3.5e-4 -7e-4 3.5e-4m7e-4 -3.5e-4c7.1e-4 -3.5e-4 1e-3 -7.1e-4 1e-3 -1e-3 -3.5e-4 3.5e-4 -1e-3 7.1e-4 -1e-3 1e-3m1e-3 -1e-3h3.6e-4 -3.6e-4m3.6e-4 0 3.5e-4 -3.5e-4 -3.5e-4 3.5e-4" fill="#f0a77a"/>
    <path d="m189.2 189.41c-0.1965-0.15981-0.44415-0.35384-0.60537-0.41134-0.0557-0.0197-0.13723-0.0399-0.21555-0.0582 0.061 0.01 0.1203 0.0155 0.17604 0.0166 8e-3 0 0.0162 3.6e-4 0.024 3.6e-4 0.0808 0 0.15628-0.0106 0.22225-0.0293 0.091 0.16545 0.23107 0.33196 0.39864 0.48189" fill="#f1b89a"/>
    <path d="m189.35 189.5c-0.0137 0-0.0568-0.0272-0.0568-0.0272-0.0272-0.0222-0.0564-0.0459-0.0864-0.0706-0.16757-0.14993-0.30763-0.31644-0.39864-0.48189-0.066 0.0187-0.14147 0.0293-0.22225 0.0293-8e-3 0-0.0159-3.6e-4 -0.024-3.6e-4 -0.0557-1e-3 -0.11501-7e-3 -0.17604-0.0166-0.0402-0.01-0.0794-0.0183-0.11395-0.0268 0.3683-0.0748-1.4774-5.3425-1.5445-5.486-0.0808-0.17356 1e-3 -0.21978 0.26212-0.28116 0.073-0.0173 0.14005-0.0335 0.19685-0.0335 0.0794 0 0.13864 0.0314 0.16686 0.13511 0.0113 0.0423 1.3568 5.4966 1.9826 6.2283 0.0205 0.0236 0.0215 0.0314 0.0141 0.0314" fill="#f0a77a"/>
    <path d="m188.23 188.92h3.5e-4 -3.5e-4m3.5e-4 0h1e-3 -1e-3m1e-3 0v-3.5e-4 3.5e-4m0-3.5e-4h7.1e-4 -7.1e-4m7.1e-4 0h3.5e-4 -3.5e-4m3.5e-4 0c1e-3 -3.5e-4 4e-3 -7.1e-4 7e-3 -1e-3 -3e-3 3.5e-4 -5e-3 1e-3 -7e-3 1e-3m7e-3 -1e-3h7.1e-4 -7.1e-4m7.1e-4 0c5e-3 -1e-3 0.0123-3e-3 0.0226-5e-3 -7e-3 1e-3 -0.0159 3e-3 -0.0226 5e-3m0.0226-5e-3v-3.5e-4 3.5e-4m0-3.5e-4c7e-4 0 1e-3 0 2e-3 -3.5e-4 -7e-4 3.5e-4 -1e-3 3.5e-4 -2e-3 3.5e-4m2e-3 -3.5e-4h1e-3 -1e-3" fill="#f1b89a"/>
    <path d="m188.26 188.91c7.1e-4 -3.6e-4 1e-3 -3.6e-4 2e-3 -3.6e-4 -7.1e-4 0-1e-3 0-2e-3 3.6e-4m2e-3 -3.6e-4c0-3.5e-4 3.5e-4 -3.5e-4 3.5e-4 -3.5e-4s-3.5e-4 0-3.5e-4 3.5e-4m3.5e-4 -3.5e-4c7.1e-4 0 1e-3 -3.5e-4 2e-3 -3.5e-4 -7.1e-4 0-1e-3 3.5e-4 -2e-3 3.5e-4m2e-3 -3.5e-4c3.5e-4 0 1e-3 -3.6e-4 1e-3 -3.6e-4 -7.1e-4 3.6e-4 -1e-3 3.6e-4 -1e-3 3.6e-4m1e-3 -3.6e-4h1e-3 -1e-3m1e-3 0c7e-4 -3.5e-4 1e-3 -3.5e-4 1e-3 -3.5e-4 -3.5e-4 0-7e-4 0-1e-3 3.5e-4" fill="#f0a77a"/>
    <path d="m155.51 102.39c0.30162 1.803-0.46532 3.4279-1.7145 3.6216-0.71084 0.11042-2.0373-1.1278-2.5802-2.9164-0.52811-1.7396-0.37606-3.7384 1.4877-3.6135 1.0887 0.07303 2.5054 1.1049 2.8071 2.9083" fill="#f2ac7f"/>
    <path d="m169.03 102.39c-0.30198 1.803 0.46496 3.4279 1.7142 3.6216 0.71084 0.11042 2.0373-1.1278 2.5806-2.9164 0.52811-1.7396 0.37606-3.7384-1.488-3.6135-1.0887 0.07303-2.5051 1.1049-2.8067 2.9083" fill="#f2ac7f"/>
    <path d="m166.56 113-0.0275-1.0858c-4e-3 -0.29105 0.12806-0.56692 0.37112-0.76342 2.5954-2.2207 3.689-4.1818 4.4708-7.1229 0.38911-1.4637 0.6283-3.1637 0.63958-4.5477 2e-3 -0.20779 0.0307-0.45085 0.0646-0.73166 0.048-0.3997 0.1076-0.89676 0.11677-1.5226 0.15311-10.599-7.2376-10.807-9.6714-10.875h-0.51153c-6.4068 0.17992-9.6954 3.8915-9.7748 11.031-0.0123 1.0964 0.21414 2.0906 0.25048 2.2419 0.0533 1.2661 0.21378 3.0536 0.67556 4.4157 1.0206 3.0127 2.1629 5.0416 4.4732 7.118 0.14781 0.11994 0.24906 0.27587 0.30727 0.44732 2.8321 0.78493 5.6822 1.3607 8.6159 1.3952" fill="#ffc697"/>
    <path d="m175.41 135.81-0.0441-0.0466 0.0441 0.0466" fill="#686c6d"/>
    <path d="m162.15 160.32h-3.5e-4c-0.085 0-0.14781-0.0572-0.18133-0.78246-0.2032-4.4425-0.0818-11.404 0.0205-15.519 0.12242-1e-3 0.24377-0.0152 0.36231-0.0497 0.19932 8.4593 0.0758 13.342-0.0208 15.564-0.0321 0.72919-0.0974 0.78705-0.18027 0.7874" fill="#f2ac7e"/>
    <path d="m171.04 226.07c-0.21908 0-0.49177-0.0938-0.63923-0.1524-0.64382-0.25365-1.4034-0.34714-2.0613-0.34714-0.65335 0-1.2065 0.0921-1.4471 0.21061-0.0917 0.0448-0.21131 0.10337-0.3182 0.10337-0.0695 0-0.13406-0.0247-0.18204-0.0935-0.0751-0.10936-0.0409-0.23283 0.10231-0.36689 0.32738-0.30551 0.98248-0.82197 1.6983-0.8569h1e-3c1.1924 0 1.7484 0.30727 2.5894 0.77223l0.31079 0.17075c0.0882 0.048 0.3556 0.19367 0.25259 0.41381-0.0504 0.1083-0.16792 0.14605-0.30656 0.14605" fill="#f2ac7e"/>
    <path d="m153.3 226.07c-0.139 0-0.25612-0.0377-0.30692-0.14605-0.10266-0.22049 0.1651-0.36619 0.25294-0.41416l0.31115-0.17075c0.84102-0.46531 1.397-0.77223 2.5802-0.77223 0.72566 0.0353 1.3808 0.55174 1.7078 0.8569 0.14358 0.13441 0.1778 0.25788 0.10265 0.36689-0.048 0.0691-0.11218 0.0938-0.18203 0.0938-0.10689 0-0.22648-0.0582-0.31785-0.10302-0.24095-0.11888-0.79481-0.21131-1.4485-0.21131-0.65757 0-1.4168 0.0935-2.0602 0.34749-0.14746 0.0586-0.42016 0.1524-0.63923 0.1524" fill="#f2ac7e"/>
    <path d="m149.16 138.55c-0.22825-0.76694-0.47555-1.8098-0.65687-2.8656-0.18874-1.0541-0.31045-2.1198-0.37465-2.9203-0.0575-0.80116-0.0741-1.3356-0.0741-1.3356-5e-3 -0.11536 0.0794-0.21273 0.18697-0.21731h8e-3c0.0977 0 0.18027 0.0797 0.19367 0.18203 0 0 0.46884 3.0247 1.0213 5.6572l-0.30444 1.4997" fill="#f2ac7e"/>
    <path d="m175.39 138.55-0.29774-1.4997c0.53975-2.6324 0.99765-5.6572 0.99765-5.6572 0.0134-0.1023 0.0938-0.18203 0.18944-0.18203h8e-3c0.10513 5e-3 0.18698 0.10195 0.18274 0.21731 0 0-0.0166 0.53446-0.0723 1.3356-0.0628 0.80045-0.18168 1.8658-0.36618 2.9203-0.17709 1.0559-0.41875 2.0987-0.64135 2.8656m-0.0215-2.7866 0.0441 0.0466-0.0441-0.0466" fill="#f2ac7e"/>
    <path d="m175.41 135.81-0.0441-0.0466 0.0441 0.0466" fill="#b6886e"/>
    <path d="m143.22 155.36c-0.52811-0.0127-1.0534-0.5976-1.342-0.98178-0.0741-0.0991-0.0875-0.14958-0.049-0.14958 0.031 0 0.0952 0.0321 0.18873 0.0977 0.21167 0.14888 0.60643 0.24166 1.0689 0.24166 0.61242 0 1.343-0.16263 1.9219-0.57327 0.19403-0.13758 0.37783-0.20778 0.47943-0.20778 0.11006 0 0.12453 0.0815-0.0462 0.24694-0.78987 0.76447-1.1843 1.27-2.2218 1.3261" fill="#f2ac7e"/>
    <path d="m181.31 155.36c-1.0375-0.0561-1.4323-0.56162-2.2218-1.3261-0.17074-0.16545-0.15628-0.24694-0.0466-0.24694 0.10196 0 0.2854 0.0702 0.47943 0.20778 0.57891 0.41064 1.3099 0.57327 1.9223 0.57327 0.46214 0 0.85725-0.0928 1.0686-0.24166 0.0935-0.0656 0.15804-0.0977 0.18873-0.0977 0.0388 0 0.025 0.0504-0.049 0.14958-0.28822 0.38418-0.81351 0.96908-1.3416 0.98178" fill="#f2ac7e"/>
    <path d="m162.52 86.155h-0.50906c-6.3655 0.17921-9.633 3.8597-9.7116 10.94-0.0123 1.1134 0.45755 5.2084 0.91264 6.5514 0.51258 1.5131 1.034 2.691 1.6401 3.7066 0.74824 1.2527 1.7388 2.2736 2.8758 3.0258 1.2651 0.83714 2.4656-0.4258 4.6224-0.44168 2.1569-0.0162 3.7423 1.1024 4.892 0.22472 1.0661-0.81421 2.0288-1.8316 2.7418-3.0924 0.58667-1.0368 0.95321-2.1717 1.3384-3.4399 0.34678-1.142 0.76835-3.2096 0.8068-6.5754l2e-3 -0.10654c0.15169-10.518-7.1963-10.724-9.6111-10.793" fill="#593014"/>
    <path d="m145.56 175.13" fill="#686c6d"/>
    <path d="m179.12 173.82c-0.26318-1.4803-0.62054-2.9386-1.0929-4.4584-0.0261-0.0833-0.11677-0.13829-0.1905-0.13758-0.36124 6e-3 -30.676-3e-3 -31.119 7e-4h-7.1e-4c-0.0857 0-0.16157 0.0557-0.18697 0.13794-0.47237 1.5198-0.82938 2.9782-1.0933 4.4574-0.0822 0.46178-0.15275 0.91193-0.2219 1.3603l-3.5e-4 4e-3 -1e-3 8e-3c-0.0483 0.3122-0.0907 0.61877-0.13194 0.92463-8e-3 0.0554 7e-3 0.11218 0.0448 0.1531 5.8406 6.4251 15.738 7.9745 16.076 7.988 0.23989 9e-3 0.58314 0.0166 0.93098 0.0166 0.33549 0 0.79798-7e-3 1.0975-0.0409 0.28787-0.0332 9.6079-0.95109 16.153-8.1072 0.0462-0.0504 0.0794-0.11112 0.0699-0.1785-0.11112-0.79693-0.21695-1.4728-0.33372-2.1272" fill="#b2a39d"/>
    <path d="m150.83 144.19c0.0138 0.10195 0.0984 0.17569 0.20744 0.16934 6.785-0.46391 17.462-0.23178 22.599 0.0229l0.01 3.5e-4c0.0921 0 0.17286-0.0646 0.19156-0.15593l2e-3 -9e-3 2e-3 -0.0138c0.31785-2.3414 0.65793-4.2404 1.0118-5.6452 0.013-0.0519 4e-3 -0.10654-0.0243-0.15205-0.0282-0.0452-0.0737-0.0769-0.12629-0.0875l-0.0526-0.0102c-2.4359-0.65158-4.2877-2.171-5.2141-4.2781-1.5342-3.4893-0.62336-8.6067 2.6335-14.798 0.0448-0.0854 0.0212-0.19014-0.0554-0.248l-0.12912-0.097-0.0607-0.0307c-1.2802-0.38947-2.2712-0.74295-3.0297-1.0802-0.0914-0.0413-0.20214-4e-3 -0.25118 0.085-1.3144 2.4063-3.6502 6.0343-6.2484 6.0505l1e-3 0.19615-0.0441-0.1958c-2.5534 0-4.8913-3.6262-6.2537-6.0452-0.0494-0.0878-0.15804-0.12347-0.25012-0.0829-0.77293 0.34255-1.7826 0.70062-3.0854 1.095l-0.0766 0.0438-0.0801 0.0744c-0.0649 0.06-0.0815 0.15628-0.0402 0.23495 3.2565 6.1916 4.1674 11.309 2.6335 14.799-0.92498 2.1033-2.7732 3.6213-5.2042 4.2743-0.0504 0.0138-0.0935 0.0469-0.11923 0.0921-0.0258 0.0455-0.0328 0.0995-0.0183 0.14958 0.40217 1.4489 0.76306 3.3472 1.0721 5.643" fill="#b2a39d"/>
    <path d="m169.04 89.504c-0.3944 3.3648-2.5248 5.5439-6.9596 5.5439-3.7384 0-6.2262-2.3167-6.5786-5.5439-0.35489-3.2516 2.1759-6.423 6.7691-6.423s7.1995 2.7467 6.7691 6.423" fill="#49250d"/>
  </g>
</svg>
