<svg width="49" height="30" viewBox="0 0 49 30" fill="none" xmlns="http://www.w3.org/2000/svg">
<g clip-path="url(#clip0_276_198133)">
<path fill-rule="evenodd" clip-rule="evenodd" d="M18.1489 26.7542H30.9958V3.20239H18.1489V26.7542Z" fill="#FF5F00"/>
<path fill-rule="evenodd" clip-rule="evenodd" d="M18.965 14.9784C18.965 10.2003 21.158 5.94476 24.5728 3.20246C22.0752 1.19661 18.9243 0 15.4992 0C7.39105 0 0.818359 6.70616 0.818359 14.9784C0.818359 23.2506 7.39105 29.9568 15.4992 29.9568C18.9243 29.9568 22.0752 28.7602 24.5728 26.7543C21.158 24.0116 18.965 19.7565 18.965 14.9784Z" fill="#EB001B"/>
<path fill-rule="evenodd" clip-rule="evenodd" d="M47.8693 24.26V23.6787H47.7204L47.5495 24.0786L47.3782 23.6787H47.2294V24.26H47.3342V23.8215L47.4949 24.1997H47.6038L47.7645 23.8206V24.26H47.8693ZM46.9268 24.26V23.7778H47.1176V23.6796H46.6323V23.7778H46.8228V24.26H46.9268ZM48.3277 14.9784C48.3277 23.2506 41.7546 29.9568 33.6468 29.9568C30.2218 29.9568 27.0704 28.7602 24.5732 26.7543C27.9881 24.012 30.181 19.7565 30.181 14.9784C30.181 10.2007 27.9881 5.94517 24.5732 3.20246C27.0704 1.19661 30.2218 0 33.6468 0C41.7546 0 48.3277 6.70616 48.3277 14.9784Z" fill="#F79E1B"/>
</g>
<defs>
<clipPath id="clip0_276_198133">
<rect width="48" height="30" fill="white" transform="translate(0.818359)"/>
</clipPath>
</defs>
</svg>
