<svg width="62" height="20" viewBox="0 0 62 20" fill="none" xmlns="http://www.w3.org/2000/svg">
<path d="M40.3732 0.0307617C35.9754 0.0307617 32.0453 2.29548 32.0453 6.47972C32.0453 11.2783 39.0155 11.6097 39.0155 14.0203C39.0155 15.0354 37.8447 15.944 35.845 15.944C33.0071 15.944 30.886 14.6744 30.886 14.6744L29.9784 18.8967C29.9784 18.8967 32.4219 19.9692 35.6659 19.9692C40.4742 19.9692 44.2577 17.5932 44.2577 13.3375C44.2577 8.26694 37.2584 7.94535 37.2584 5.70787C37.2584 4.91274 38.2196 4.04153 40.2135 4.04153C42.4633 4.04153 44.2988 4.96487 44.2988 4.96487L45.187 0.886776C45.187 0.886776 43.1898 0.0307617 40.3732 0.0307617V0.0307617ZM0.137251 0.338543L0.0307617 0.954103C0.0307617 0.954103 1.88094 1.29052 3.54733 1.9616C5.69294 2.73113 5.84578 3.17912 6.20714 4.57052L10.1448 19.6518H15.4233L23.5552 0.338543H18.2888L13.0636 13.4697L10.9314 2.33912C10.7358 1.06523 9.74536 0.338543 8.53296 0.338543H0.137251V0.338543ZM25.6729 0.338543L21.5416 19.6518H26.5635L30.6803 0.338543H25.6729V0.338543ZM53.682 0.338543C52.471 0.338543 51.8294 0.982675 51.3586 2.10828L44.0011 19.6518H49.2675L50.2864 16.7279H56.7024L57.322 19.6518H61.9688L57.9149 0.338543H53.682V0.338543ZM54.3669 5.55638L55.9279 12.8037H51.7458L54.3669 5.55638V5.55638Z" fill="#1434CB"/>
</svg>
